<?xml version="1.0" encoding="UTF-8"?>
<svg width="54px" height="47px" viewBox="0 0 54 47" version="1.1" xmlns="http://www.w3.org/2000/svg" xmlns:xlink="http://www.w3.org/1999/xlink">
    <title>logo-full-dark-gradient</title>
    <defs>
        <filter id="filter-1">
            <feColorMatrix in="SourceGraphic" type="matrix" values="0 0 0 0 1.000000 0 0 0 0 1.000000 0 0 0 0 1.000000 0 0 0 1.000000 0"></feColorMatrix>
        </filter>
        <linearGradient x1="8.923%" y1="50%" x2="91.871%" y2="50%" id="linearGradient-2">
            <stop stop-color="#7CB7FF" offset="0%"></stop>
            <stop stop-color="#BA6DF6" offset="100%"></stop>
        </linearGradient>
    </defs>
    <g id="UN" stroke="none" stroke-width="1" fill="none" fill-rule="evenodd">
        <g id="Welcome" transform="translate(-31.000000, -26.000000)">
            <g filter="url(#filter-1)" id="logo-full-dark-gradient">
                <g transform="translate(31.000000, 26.000000)">
                    <path d="M32.3696691,0.437632946 L27.2425637,5.56491264 L28.2805035,6.60285245 C28.8640723,7.18642118 29.8109984,7.18607245 30.3942184,6.60285245 L35.521498,1.47557276 L34.4835583,0.437632946 C34.1916867,0.145761411 33.8091502,0 33.4266137,0 C33.0439028,0 32.6615406,0.145935767 32.3696691,0.437632946 L32.3696691,0.437632946 Z M19.4002162,0.437632946 L18.362102,1.47557276 L23.4895561,6.60285245 C24.0727761,7.18607245 25.0195279,7.18642118 25.6032709,6.60285245 L26.6412107,5.56491264 L21.513931,0.437632946 C21.2222339,0.145935767 20.8396973,0 20.4569865,0 C20.0744499,0 19.6919134,0.145761411 19.4002162,0.437632946 Z M37.1979286,7.14579627 L27.5098511,16.8338738 L29.4713534,18.7952017 C30.5738048,19.8976532 32.3630435,19.8973045 33.4651463,18.7952017 L43.1532238,9.10712418 L41.1917216,7.14579627 C40.6404087,6.59448336 39.9175297,6.31900127 39.1948251,6.31900127 C38.4719461,6.31900127 37.7488929,6.59465773 37.1979286,7.14579627 L37.1979286,7.14579627 Z M12.6920529,7.14579627 L10.7305506,9.10712418 L20.4186282,18.7952017 C21.5205565,19.8973045 23.3099697,19.8976532 24.4124211,18.7952017 L26.373749,16.8338738 L16.6858458,7.14579627 C16.1348816,6.59465773 15.4118283,6.31917564 14.6889493,6.31900127 C13.9660704,6.31900127 13.2433658,6.59448336 12.6920529,7.14579627 L12.6920529,7.14579627 Z M25.8850298,6.92227218 L24.8469156,7.96038636 L26.9418,10.0552708 L29.0366845,7.96038636 L27.9987446,6.92227218 C27.7070475,6.63057505 27.324511,6.48463927 26.9418,6.48463927 C26.5592635,6.48463927 26.176727,6.63057505 25.8850298,6.92227218 Z M43.98647,16.5782683 L27.8857621,32.6788018 L31.1455173,35.9383827 C32.9779963,37.7708617 35.9514594,37.7699899 37.7830666,35.9383827 L53.8836,19.8378491 L50.6240191,16.5782683 C49.7077795,15.6620288 48.5066427,15.2041705 47.3053318,15.2041705 C46.1040205,15.2041705 44.9023608,15.6623775 43.98647,16.5782683 L43.98647,16.5782683 Z M3.25958085,16.5782683 L0,19.8378491 L16.1007079,35.9383827 C17.9321407,37.7699899 20.9057781,37.7708617 22.7380828,35.9383827 L25.997838,32.6788018 L9.89713009,16.5782683 C8.98123932,15.6623775 7.77957945,15.2041705 6.57826832,15.2041705 C5.37695714,15.2041705 4.17582035,15.6620288 3.25958085,16.5782683 Z M24.9449036,19.398647 L22.9835757,21.3599749 L26.9418,25.3183736 L30.9000244,21.3599749 L28.9388709,19.398647 C28.3877323,18.8476828 27.664679,18.5720262 26.9418,18.5720262 C26.2189211,18.571852 25.4962165,18.8475085 24.9449036,19.398647 Z M23.6231126,36.9416257 L20.3635318,40.2013809 L26.9418,46.779475 L33.5200684,40.2013809 L30.2606619,36.9416257 C29.3447711,36.0257349 28.1431112,35.5677022 26.9418,35.5677022 C25.7404889,35.567528 24.5393521,36.0253862 23.6231126,36.9416257 L23.6231126,36.9416257 Z" id="Shape" fill="url(#linearGradient-2)" fill-rule="nonzero"></path>
                </g>
            </g>
        </g>
    </g>
</svg>