<?xml version="1.0" encoding="UTF-8"?>
<svg width="119px" height="47px" viewBox="0 0 119 47" version="1.1" xmlns="http://www.w3.org/2000/svg" xmlns:xlink="http://www.w3.org/1999/xlink">
    <title>until-logo</title>
    <defs>
        <filter id="filter-1">
            <feColorMatrix in="SourceGraphic" type="matrix" values="0 0 0 0 1.000000 0 0 0 0 1.000000 0 0 0 0 1.000000 0 0 0 1.000000 0"></feColorMatrix>
        </filter>
    </defs>
    <g id="UN" stroke="none" stroke-width="1" fill="none" fill-rule="evenodd">
        <g id="Welcome" transform="translate(-1290.000000, -26.000000)">
            <g filter="url(#filter-1)" id="until-logo">
                <g transform="translate(1290.000000, 26.000000)">
                    <g id="Group" transform="translate(26.111111, 32.940171)" fill="#001A3F" fill-rule="nonzero">
                        <g transform="translate(0.401709, 0.000000)">
                            <path d="M0.0843589744,0.0843589744 L1.02034188,0.0843589744 L1.02034188,2.78786325 C1.02034188,3.0891453 1.05649573,3.31008547 1.12880342,3.45068376 C1.24128205,3.6957265 1.48230769,3.82025641 1.85589744,3.82025641 C2.22547009,3.82025641 2.46649573,3.6957265 2.57897436,3.45068376 C2.65128205,3.31008547 2.6874359,3.0891453 2.6874359,2.78786325 L2.6874359,0.0843589744 L3.61538462,0.0843589744 L3.61538462,2.78786325 C3.61538462,3.25384615 3.54307692,3.61940171 3.39846154,3.88051282 C3.12931624,4.35854701 2.61111111,4.59555556 1.85188034,4.59555556 C1.09264957,4.59555556 0.574444444,4.35854701 0.301282051,3.88051282 C0.156666667,3.61940171 0.0843589744,3.25384615 0.0843589744,2.78786325 L0.0843589744,0.0843589744 Z" id="Path"></path>
                            <path d="M7.05401709,1.41803419 C7.26692308,1.59478632 7.37136752,1.88803419 7.37136752,2.29376068 L7.37136752,4.48307692 L6.49965812,4.48307692 L6.49965812,2.50264957 C6.49965812,2.32991453 6.47555556,2.20136752 6.43136752,2.10897436 C6.34700855,1.94025641 6.19034188,1.85991453 5.95735043,1.85991453 C5.67213675,1.85991453 5.47529915,1.98042735 5.36683761,2.22547009 C5.31059829,2.35401709 5.28247863,2.51871795 5.28247863,2.71957265 L5.28247863,4.47905983 L4.4308547,4.47905983 L4.4308547,1.23324786 L5.25435897,1.23324786 L5.25435897,1.70726496 C5.36282051,1.53854701 5.46726496,1.41803419 5.56367521,1.3457265 C5.73641026,1.21316239 5.95735043,1.14888889 6.22649573,1.14888889 C6.56393162,1.15290598 6.83709402,1.24128205 7.05401709,1.41803419 Z" id="Path"></path>
                            <path d="M9.17478632,0.843589744 L8.17478632,0.843589744 L8.17478632,0.0602564103 L9.17478632,0.0602564103 L9.17478632,0.843589744 Z M8.17478632,1.22923077 L9.17478632,1.22923077 L9.17478632,4.48307692 L8.17478632,4.48307692 L8.17478632,1.22923077 Z" id="Shape"></path>
                            <path d="M9.52452991,1.86794872 L9.52452991,1.26136752 L9.97846154,1.26136752 L9.97846154,0.353504274 L10.8180342,0.353504274 L10.8180342,1.26136752 L11.3442735,1.26136752 L11.3442735,1.86794872 L10.8180342,1.86794872 L10.8180342,3.58726496 C10.8180342,3.71982906 10.8341026,3.80418803 10.8702564,3.83632479 C10.9023932,3.86846154 11.0068376,3.88452991 11.1795726,3.88452991 C11.2036752,3.88452991 11.2317949,3.88452991 11.2599145,3.88452991 C11.2880342,3.88452991 11.3161538,3.88051282 11.3442735,3.88051282 L11.3442735,4.51521368 L10.9425641,4.53128205 C10.5408547,4.54333333 10.2676923,4.47504274 10.1190598,4.32239316 C10.0226496,4.22598291 9.97444444,4.07333333 9.97444444,3.87247863 L9.97444444,1.87196581 L9.52452991,1.87196581 L9.52452991,1.86794872 Z" id="Path"></path>
                            <path d="M14.015641,1.29752137 C14.2405983,1.39794872 14.4294017,1.55863248 14.5780342,1.77957265 C14.7105983,1.97239316 14.7989744,2.19735043 14.8391453,2.45042735 C14.8632479,2.59905983 14.8712821,2.81598291 14.867265,3.09717949 L12.4971795,3.09717949 C12.5092308,3.4225641 12.6257265,3.65153846 12.8386325,3.78410256 C12.9671795,3.86444444 13.1238462,3.90461538 13.3086325,3.90461538 C13.501453,3.90461538 13.6581197,3.85641026 13.7826496,3.75598291 C13.8469231,3.70376068 13.9071795,3.6274359 13.9594017,3.53102564 L14.827094,3.53102564 C14.8029915,3.72384615 14.698547,3.92068376 14.5137607,4.11752137 C14.2205128,4.43487179 13.8147863,4.59153846 13.288547,4.59153846 C12.8547009,4.59153846 12.4730769,4.45897436 12.1436752,4.18982906 C11.8142735,3.92470085 11.6455556,3.48683761 11.6455556,2.8882906 C11.6455556,2.32589744 11.794188,1.89205128 12.0954701,1.59076923 C12.392735,1.28948718 12.7823932,1.1408547 13.2604274,1.1408547 C13.5335897,1.14487179 13.7866667,1.19307692 14.015641,1.29752137 Z M12.7422222,2.03264957 C12.6217094,2.15717949 12.5453846,2.32589744 12.517265,2.53478632 L13.9835043,2.53478632 C13.9674359,2.30982906 13.8911111,2.13709402 13.758547,2.02059829 C13.6259829,1.90410256 13.4532479,1.84384615 13.2523932,1.84384615 C13.031453,1.84384615 12.862735,1.90811966 12.7422222,2.03264957 Z" id="Shape"></path>
                            <path d="M17.0204274,1.28145299 C17.1730769,1.36982906 17.2976068,1.48632479 17.3940171,1.64299145 L17.3940171,0.0923931624 L18.2576923,0.0923931624 L18.2576923,4.48709402 L17.4301709,4.48709402 L17.4301709,4.03717949 C17.3096581,4.23 17.1690598,4.37059829 17.0164103,4.45897436 C16.8637607,4.54735043 16.6669231,4.59153846 16.4379487,4.59153846 C16.0563248,4.59153846 15.7389744,4.43888889 15.4778632,4.12957265 C15.2167521,3.82025641 15.0882051,3.4265812 15.0882051,2.94452991 C15.0882051,2.39017094 15.2167521,1.95230769 15.4698291,1.63495726 C15.7269231,1.31760684 16.0683761,1.15692308 16.494188,1.15692308 C16.6910256,1.15290598 16.8677778,1.19709402 17.0204274,1.28145299 Z M17.2293162,3.59931624 C17.3538462,3.41854701 17.4181197,3.18957265 17.4181197,2.90435897 C17.4181197,2.50666667 17.3176923,2.22145299 17.1168376,2.05273504 C16.9923077,1.9482906 16.8517094,1.89606838 16.6870085,1.89606838 C16.4379487,1.89606838 16.2571795,1.98846154 16.1406838,2.17726496 C16.024188,2.36606838 15.9679487,2.59905983 15.9679487,2.87623932 C15.9679487,3.17752137 16.0282051,3.41854701 16.1447009,3.59529915 C16.2611966,3.77606838 16.4419658,3.86444444 16.6829915,3.86444444 C16.92,3.86846154 17.1047863,3.78008547 17.2293162,3.59931624 Z" id="Shape"></path>
                            <polygon id="Path" points="20.7804274 0.0843589744 21.7445299 0.0843589744 23.4919658 3.14940171 23.4919658 0.0843589744 24.3476068 0.0843589744 24.3476068 4.48307692 23.4276923 4.48307692 21.6360684 1.36179487 21.6360684 4.48307692 20.7804274 4.48307692"></polygon>
                            <path d="M26.4284615,2.50666667 C26.5851282,2.4865812 26.7016239,2.46247863 26.7699145,2.43034188 C26.8904274,2.37811966 26.9547009,2.29777778 26.9547009,2.18931624 C26.9547009,2.05675214 26.9064957,1.96435897 26.8141026,1.91213675 C26.7217094,1.85991453 26.5811111,1.83581197 26.4003419,1.83581197 C26.1954701,1.83581197 26.0508547,1.88401709 25.9664957,1.98444444 C25.9062393,2.05675214 25.8660684,2.15717949 25.8459829,2.2817094 L25.0264957,2.2817094 C25.0425641,1.99649573 25.122906,1.76350427 25.2675214,1.57871795 C25.4924786,1.29350427 25.8821368,1.14888889 26.4324786,1.14888889 C26.79,1.14888889 27.1073504,1.22119658 27.3845299,1.36179487 C27.6617094,1.50239316 27.8023077,1.77153846 27.8023077,2.16119658 L27.8023077,3.65153846 C27.8023077,3.75598291 27.8023077,3.88051282 27.8063248,4.0291453 C27.814359,4.14162393 27.8304274,4.21794872 27.858547,4.25410256 C27.8866667,4.29025641 27.9268376,4.32641026 27.9830769,4.35452991 L27.9830769,4.47905983 L27.0591453,4.47905983 C27.0350427,4.41478632 27.0149573,4.35051282 27.0069231,4.2942735 C26.9988889,4.23803419 26.9908547,4.16974359 26.9828205,4.0974359 C26.8663248,4.22598291 26.7297436,4.33444444 26.5730769,4.42282051 C26.3882906,4.52726496 26.1794017,4.57948718 25.9504274,4.57948718 C25.6531624,4.57948718 25.4081197,4.49512821 25.2152991,4.32641026 C25.0224786,4.15769231 24.9260684,3.92068376 24.9260684,3.61136752 C24.9260684,3.20965812 25.082735,2.92042735 25.3920513,2.74367521 C25.5607692,2.64726496 25.8138462,2.57495726 26.1432479,2.53478632 L26.4284615,2.50666667 Z M26.9466667,2.90034188 C26.8904274,2.93247863 26.8382051,2.96059829 26.7819658,2.98068376 C26.7257265,3.00076923 26.6494017,3.0208547 26.5529915,3.04094017 L26.3601709,3.07709402 C26.1794017,3.10923077 26.0468376,3.14940171 25.9705128,3.19358974 C25.8379487,3.26991453 25.7696581,3.39042735 25.7696581,3.55512821 C25.7696581,3.69974359 25.8098291,3.80418803 25.894188,3.86846154 C25.9745299,3.93273504 26.0749573,3.96487179 26.191453,3.96487179 C26.3762393,3.96487179 26.5489744,3.91264957 26.705641,3.80418803 C26.8623077,3.6957265 26.9426496,3.50290598 26.9506838,3.21769231 L26.9506838,2.90034188 L26.9466667,2.90034188 Z" id="Shape"></path>
                            <path d="M28.2040171,1.86794872 L28.2040171,1.26136752 L28.6579487,1.26136752 L28.6579487,0.353504274 L29.4975214,0.353504274 L29.4975214,1.26136752 L30.0237607,1.26136752 L30.0237607,1.86794872 L29.4975214,1.86794872 L29.4975214,3.58726496 C29.4975214,3.71982906 29.5135897,3.80418803 29.5497436,3.83632479 C29.5818803,3.86846154 29.6863248,3.88452991 29.8590598,3.88452991 C29.8831624,3.88452991 29.9112821,3.88452991 29.9394017,3.88452991 C29.9675214,3.88452991 29.995641,3.88051282 30.0237607,3.88051282 L30.0237607,4.51521368 L29.6220513,4.53128205 C29.2203419,4.54333333 28.9471795,4.47504274 28.798547,4.32239316 C28.7021368,4.22598291 28.6539316,4.07333333 28.6539316,3.87247863 L28.6539316,1.87196581 L28.2040171,1.87196581 L28.2040171,1.86794872 Z" id="Path"></path>
                            <path d="M31.5775071,0.843589744 L30.5821368,0.843589744 L30.5821368,0.0602564103 L31.5775071,0.0602564103 L31.5775071,0.843589744 Z M30.5867664,1.22923077 L31.5821368,1.22923077 L31.5821368,4.48307692 L30.5867664,4.48307692 L30.5867664,1.22923077 Z" id="Shape"></path>
                            <path d="M34.9848718,4.08538462 C34.7117094,4.42282051 34.2939316,4.59555556 33.7355556,4.59555556 C33.1771795,4.59555556 32.7594017,4.42683761 32.4862393,4.08538462 C32.2130769,3.74794872 32.0724786,3.33820513 32.0724786,2.86017094 C32.0724786,2.39017094 32.2090598,1.98444444 32.4862393,1.63897436 C32.7594017,1.29350427 33.1771795,1.12478632 33.7355556,1.12478632 C34.2939316,1.12478632 34.7117094,1.29752137 34.9848718,1.63897436 C35.2580342,1.98042735 35.3946154,2.39017094 35.3946154,2.86017094 C35.3946154,3.33820513 35.2580342,3.74794872 34.9848718,4.08538462 Z M34.3019658,3.61538462 C34.4345299,3.43863248 34.5028205,3.18555556 34.5028205,2.86017094 C34.5028205,2.53478632 34.4345299,2.2817094 34.3019658,2.10897436 C34.1694017,1.93222222 33.9765812,1.84384615 33.7275214,1.84384615 C33.4784615,1.84384615 33.285641,1.93222222 33.1530769,2.10897436 C33.0205128,2.2857265 32.9522222,2.53478632 32.9522222,2.86017094 C32.9522222,3.18555556 33.0205128,3.43863248 33.1530769,3.61538462 C33.285641,3.79213675 33.4784615,3.88051282 33.7275214,3.88051282 C33.9765812,3.88051282 34.1694017,3.79213675 34.3019658,3.61538462 Z" id="Shape"></path>
                            <path d="M38.6283761,1.41803419 C38.8412821,1.59478632 38.9457265,1.88803419 38.9457265,2.29376068 L38.9457265,4.48307692 L38.0740171,4.48307692 L38.0740171,2.50264957 C38.0740171,2.32991453 38.0499145,2.20136752 38.0057265,2.10897436 C37.9213675,1.94025641 37.7647009,1.85991453 37.5317094,1.85991453 C37.2464957,1.85991453 37.0496581,1.98042735 36.9411966,2.22547009 C36.8849573,2.35401709 36.8568376,2.51871795 36.8568376,2.71957265 L36.8568376,4.47905983 L36.0052137,4.47905983 L36.0052137,1.23324786 L36.8287179,1.23324786 L36.8287179,1.70726496 C36.9371795,1.53854701 37.0416239,1.41803419 37.1380342,1.3457265 C37.3107692,1.21316239 37.5317094,1.14888889 37.8008547,1.14888889 C38.1423077,1.15290598 38.4154701,1.24128205 38.6283761,1.41803419 Z" id="Path"></path>
                            <path d="M40.3958974,3.44666667 C40.4119658,3.59931624 40.4521368,3.70376068 40.5123932,3.76803419 C40.6168376,3.88051282 40.8136752,3.93675214 41.0988889,3.93675214 C41.2676068,3.93675214 41.4001709,3.91264957 41.5005983,3.86042735 C41.6010256,3.81222222 41.6492308,3.73589744 41.6492308,3.63547009 C41.6492308,3.53905983 41.6090598,3.46675214 41.5287179,3.41854701 C41.4483761,3.37034188 41.1511111,3.28196581 40.6409402,3.16145299 C40.2713675,3.06905983 40.0102564,2.9565812 39.8616239,2.82 C39.7089744,2.6834188 39.6366667,2.49059829 39.6366667,2.23350427 C39.6366667,1.93222222 39.7531624,1.67512821 39.9901709,1.45820513 C40.2271795,1.24128205 40.5605983,1.13282051 40.9864103,1.13282051 C41.3921368,1.13282051 41.7255556,1.21316239 41.9826496,1.37786325 C42.2397436,1.53854701 42.384359,1.81974359 42.4245299,2.2174359 L41.572906,2.2174359 C41.5608547,2.10897436 41.5287179,2.02059829 41.4805128,1.95632479 C41.3881197,1.83982906 41.2274359,1.78358974 41.0024786,1.78358974 C40.8176923,1.78358974 40.6851282,1.8117094 40.6047863,1.87196581 C40.5244444,1.92820513 40.4882906,1.99649573 40.4882906,2.07683761 C40.4882906,2.17324786 40.5284615,2.24555556 40.6128205,2.28974359 C40.6971795,2.33393162 40.9944444,2.4142735 41.5005983,2.52675214 C41.8380342,2.60709402 42.0951282,2.72760684 42.2638462,2.8882906 C42.4325641,3.05299145 42.512906,3.25384615 42.512906,3.49888889 C42.512906,3.82025641 42.3923932,4.08538462 42.1513675,4.28623932 C41.9103419,4.49111111 41.5407692,4.59153846 41.0386325,4.59153846 C40.5244444,4.59153846 40.1468376,4.48307692 39.9017949,4.26615385 C39.6567521,4.04923077 39.5362393,3.77606838 39.5362393,3.44264957 L40.3958974,3.44264957 L40.3958974,3.44666667 Z" id="Path"></path>
                        </g>
                        <g transform="translate(0.000000, 7.230769)">
                            <polygon id="Path" points="3.68367521 0.188803419 3.68367521 0.968119658 2.36606838 0.968119658 2.36606838 4.58752137 1.44213675 4.58752137 1.44213675 0.968119658 0.120512821 0.968119658 0.120512821 0.188803419"></polygon>
                            <path d="M5.82478632,1.39794872 C6.04974359,1.49837607 6.23854701,1.65905983 6.38717949,1.88 C6.51974359,2.07282051 6.60811966,2.29777778 6.6482906,2.5508547 C6.67239316,2.69948718 6.68042735,2.91641026 6.67641026,3.19760684 L4.30632479,3.19760684 C4.31837607,3.52299145 4.43487179,3.75196581 4.64777778,3.88452991 C4.77632479,3.96487179 4.93299145,4.00504274 5.11777778,4.00504274 C5.31059829,4.00504274 5.46726496,3.95683761 5.59179487,3.85641026 C5.65606838,3.80418803 5.71632479,3.72786325 5.76854701,3.63145299 L6.63623932,3.63145299 C6.61213675,3.8242735 6.50769231,4.02111111 6.32290598,4.21794872 C6.02965812,4.53529915 5.62393162,4.69196581 5.09769231,4.69196581 C4.66384615,4.69196581 4.28222222,4.55940171 3.95282051,4.29025641 C3.6234188,4.02512821 3.45470085,3.58726496 3.45470085,2.98871795 C3.45470085,2.42632479 3.60333333,1.99247863 3.90461538,1.69119658 C4.20188034,1.38991453 4.59153846,1.24128205 5.06957265,1.24128205 C5.34273504,1.24529915 5.59581197,1.29752137 5.82478632,1.39794872 Z M4.55136752,2.13307692 C4.4308547,2.25760684 4.35452991,2.42632479 4.32641026,2.63521368 L5.79264957,2.63521368 C5.7765812,2.41025641 5.70025641,2.23752137 5.56769231,2.12102564 C5.43512821,2.00452991 5.26239316,1.9442735 5.06153846,1.9442735 C4.84059829,1.9482906 4.67188034,2.00854701 4.55136752,2.13307692 Z" id="Shape"></path>
                            <path d="M9.05051282,2.49863248 C9.03444444,2.37811966 8.9942735,2.26965812 8.92598291,2.16923077 C8.82957265,2.03666667 8.68094017,1.97239316 8.48008547,1.97239316 C8.19487179,1.97239316 7.99803419,2.11299145 7.88957265,2.39820513 C7.83333333,2.5508547 7.80521368,2.74769231 7.80521368,3.00076923 C7.80521368,3.23777778 7.83333333,3.43059829 7.88957265,3.57521368 C7.99,3.84435897 8.18282051,3.98094017 8.46401709,3.98094017 C8.66487179,3.98094017 8.80547009,3.92871795 8.88982906,3.82025641 C8.97418803,3.71179487 9.02239316,3.57521368 9.04247863,3.40247863 L9.91017094,3.40247863 C9.89008547,3.65957265 9.79769231,3.90461538 9.62897436,4.13760684 C9.36384615,4.51119658 8.96615385,4.69598291 8.44393162,4.69598291 C7.9217094,4.69598291 7.53606838,4.53931624 7.28700855,4.23 C7.04196581,3.92068376 6.9174359,3.51897436 6.9174359,3.0208547 C6.9174359,2.46247863 7.05401709,2.02863248 7.32717949,1.71931624 C7.60034188,1.41 7.97794872,1.25333333 8.45598291,1.25333333 C8.8657265,1.25333333 9.1991453,1.3457265 9.45623932,1.52649573 C9.71333333,1.70726496 9.87,2.03264957 9.91820513,2.49461538 L9.05051282,2.49461538 L9.05051282,2.49863248 Z" id="Path"></path>
                            <path d="M12.8386325,1.34974359 C13.0033333,1.41803419 13.1358974,1.52649573 13.2403419,1.67111111 C13.3287179,1.79162393 13.3849573,1.91615385 13.4050427,2.04470085 C13.4251282,2.17324786 13.4331624,2.38213675 13.4331624,2.67136752 L13.4331624,4.58350427 L12.5654701,4.58350427 L12.5654701,2.60307692 C12.5654701,2.42632479 12.5373504,2.2857265 12.477094,2.17726496 C12.4007692,2.02461538 12.2521368,1.9482906 12.0392308,1.9482906 C11.8142735,1.9482906 11.6455556,2.02461538 11.5330769,2.17324786 C11.4165812,2.32188034 11.3603419,2.53880342 11.3603419,2.81598291 L11.3603419,4.57948718 L10.5087179,4.57948718 L10.5087179,0.200854701 L11.3603419,0.200854701 L11.3603419,1.75145299 C11.4848718,1.56264957 11.6254701,1.43008547 11.7861538,1.35777778 C11.9468376,1.28145299 12.1155556,1.24529915 12.2963248,1.24529915 C12.4931624,1.24529915 12.6779487,1.28145299 12.8386325,1.34974359 Z" id="Path"></path>
                            <path d="M16.8597436,1.51846154 C17.0726496,1.69521368 17.177094,1.98846154 17.177094,2.39418803 L17.177094,4.58350427 L16.3053846,4.58350427 L16.3053846,2.60307692 C16.3053846,2.43034188 16.2812821,2.30179487 16.237094,2.20940171 C16.152735,2.04068376 15.9960684,1.96034188 15.7630769,1.96034188 C15.4778632,1.96034188 15.2810256,2.0808547 15.1725641,2.32589744 C15.1163248,2.45444444 15.0882051,2.6191453 15.0882051,2.82 L15.0882051,4.57948718 L14.2365812,4.57948718 L14.2365812,1.33367521 L15.0600855,1.33367521 L15.0600855,1.80769231 C15.168547,1.63897436 15.2729915,1.51846154 15.3694017,1.44615385 C15.5421368,1.31358974 15.7630769,1.24931624 16.0322222,1.24931624 C16.3696581,1.25333333 16.6468376,1.3417094 16.8597436,1.51846154 Z" id="Path"></path>
                            <path d="M20.68,4.18581197 C20.4068376,4.52324786 19.9890598,4.69598291 19.4306838,4.69598291 C18.8723077,4.69598291 18.4545299,4.52726496 18.1813675,4.18581197 C17.9082051,3.84837607 17.7676068,3.43863248 17.7676068,2.96059829 C17.7676068,2.49059829 17.904188,2.08487179 18.1813675,1.73940171 C18.4545299,1.39393162 18.8723077,1.22521368 19.4306838,1.22521368 C19.9890598,1.22521368 20.4068376,1.39794872 20.68,1.73940171 C20.9531624,2.0808547 21.0897436,2.49059829 21.0897436,2.96059829 C21.0937607,3.44264957 20.9571795,3.84837607 20.68,4.18581197 Z M20.0011111,3.71581197 C20.1336752,3.53905983 20.2019658,3.28598291 20.2019658,2.96059829 C20.2019658,2.63521368 20.1336752,2.38213675 20.0011111,2.20940171 C19.868547,2.03264957 19.6757265,1.9442735 19.4266667,1.9442735 C19.1776068,1.9442735 18.9847863,2.03264957 18.8522222,2.20940171 C18.7196581,2.38615385 18.6513675,2.63521368 18.6513675,2.96059829 C18.6513675,3.28598291 18.7196581,3.53905983 18.8522222,3.71581197 C18.9847863,3.8925641 19.1776068,3.98094017 19.4266667,3.98094017 C19.6757265,3.98094017 19.868547,3.8925641 20.0011111,3.71581197 Z" id="Shape"></path>
                            <polygon id="Path" points="22.5720513 4.58350427 21.7204274 4.58350427 21.7204274 0.184786325 22.5720513 0.184786325"></polygon>
                            <path d="M26.1111111,4.18581197 C25.8379487,4.52324786 25.4201709,4.69598291 24.8617949,4.69598291 C24.3034188,4.69598291 23.885641,4.52726496 23.6124786,4.18581197 C23.3393162,3.84837607 23.1987179,3.43863248 23.1987179,2.96059829 C23.1987179,2.49059829 23.3352991,2.08487179 23.6124786,1.73940171 C23.885641,1.39393162 24.3034188,1.22521368 24.8617949,1.22521368 C25.4201709,1.22521368 25.8379487,1.39794872 26.1111111,1.73940171 C26.3842735,2.0808547 26.5208547,2.49059829 26.5208547,2.96059829 C26.5248718,3.44264957 26.3882906,3.84837607 26.1111111,4.18581197 Z M25.4322222,3.71581197 C25.5647863,3.53905983 25.6330769,3.28598291 25.6330769,2.96059829 C25.6330769,2.63521368 25.5647863,2.38213675 25.4322222,2.20940171 C25.2996581,2.03264957 25.1068376,1.9442735 24.8577778,1.9442735 C24.6087179,1.9442735 24.4158974,2.03264957 24.2833333,2.20940171 C24.1507692,2.38615385 24.0824786,2.63521368 24.0824786,2.96059829 C24.0824786,3.28598291 24.1507692,3.53905983 24.2833333,3.71581197 C24.4158974,3.8925641 24.6087179,3.98094017 24.8577778,3.98094017 C25.1068376,3.98094017 25.2996581,3.8925641 25.4322222,3.71581197 Z" id="Shape"></path>
                            <path d="M28.7423077,1.32965812 C28.9471795,1.41401709 29.1158974,1.57068376 29.2444444,1.79965812 L29.2444444,1.32965812 L30.0719658,1.32965812 L30.0719658,4.41880342 C30.0719658,4.8365812 29.9996581,5.15393162 29.8590598,5.36683761 C29.6180342,5.73239316 29.1520513,5.91717949 28.4611111,5.91717949 C28.0433333,5.91717949 27.7058974,5.83683761 27.4447863,5.67213675 C27.1836752,5.5074359 27.0350427,5.26641026 27.0109402,4.94102564 L27.9348718,4.94102564 C27.9589744,5.04145299 27.9991453,5.11376068 28.0513675,5.15794872 C28.1437607,5.2342735 28.2964103,5.27444444 28.5133333,5.27444444 C28.8186325,5.27444444 29.0235043,5.17401709 29.1279487,4.96512821 C29.1962393,4.8325641 29.2283761,4.61162393 29.2283761,4.30230769 L29.2283761,4.0934188 C29.1480342,4.23401709 29.0596581,4.33846154 28.967265,4.40675214 C28.798547,4.53529915 28.5776068,4.59957265 28.3084615,4.59957265 C27.8906838,4.59957265 27.557265,4.45094017 27.3082051,4.15769231 C27.0591453,3.86444444 26.9346154,3.46675214 26.9346154,2.96461538 C26.9346154,2.4825641 27.0551282,2.07683761 27.2961538,1.7474359 C27.5371795,1.41803419 27.8786325,1.25333333 28.3164957,1.25333333 C28.4771795,1.25333333 28.6217949,1.28145299 28.7423077,1.32965812 Z M29.0315385,3.66358974 C29.1681197,3.51495726 29.2364103,3.27393162 29.2364103,2.94452991 C29.2364103,2.63521368 29.1721368,2.40222222 29.0435897,2.24153846 C28.9150427,2.0808547 28.7382906,2.00051282 28.5213675,2.00051282 C28.2241026,2.00051282 28.0192308,2.14111111 27.9067521,2.42230769 C27.8464957,2.57094017 27.8183761,2.7557265 27.8183761,2.97264957 C27.8183761,3.16145299 27.8505128,3.33017094 27.9147863,3.47880342 C28.0312821,3.75196581 28.2361538,3.8925641 28.5334188,3.8925641 C28.7262393,3.88854701 28.8949573,3.81222222 29.0315385,3.66358974 Z" id="Shape"></path>
                            <path d="M30.9958974,5.21017094 L31.104359,5.21418803 C31.1887179,5.21820513 31.2690598,5.21418803 31.3413675,5.20615385 C31.4176923,5.19811966 31.4819658,5.17401709 31.534188,5.13786325 C31.5823932,5.1057265 31.6305983,5.0334188 31.6747863,4.92495726 C31.7189744,4.81649573 31.7350427,4.75222222 31.7310256,4.72811966 L30.5339316,1.33367521 L31.4779487,1.33367521 L32.1889744,3.73188034 L32.8598291,1.33367521 L33.7636752,1.33367521 L32.6469231,4.53128205 C32.43,5.14991453 32.2612821,5.53153846 32.1367521,5.68017094 C32.0122222,5.82880342 31.7591453,5.90111111 31.3855556,5.90111111 C31.3092308,5.90111111 31.2489744,5.90111111 31.2047863,5.90111111 C31.1605983,5.90111111 31.0882906,5.89709402 30.9999145,5.88905983 L30.9999145,5.21017094 L30.9958974,5.21017094 Z" id="Path"></path>
                            <polygon id="Path" points="36.8688889 4.58350427 35.9570085 4.58350427 35.9570085 0.184786325 36.8688889 0.184786325"></polygon>
                            <path d="M40.2834188,1.51846154 C40.4963248,1.69521368 40.6007692,1.98846154 40.6007692,2.39418803 L40.6007692,4.58350427 L39.7290598,4.58350427 L39.7290598,2.60307692 C39.7290598,2.43034188 39.7049573,2.30179487 39.6607692,2.20940171 C39.5764103,2.04068376 39.4197436,1.96034188 39.1867521,1.96034188 C38.9015385,1.96034188 38.7047009,2.0808547 38.5962393,2.32589744 C38.54,2.45444444 38.5118803,2.6191453 38.5118803,2.82 L38.5118803,4.57948718 L37.6602564,4.57948718 L37.6602564,1.33367521 L38.4837607,1.33367521 L38.4837607,1.80769231 C38.5922222,1.63897436 38.6966667,1.51846154 38.7930769,1.44615385 C38.965812,1.31358974 39.1867521,1.24931624 39.4558974,1.24931624 C39.7973504,1.25333333 40.0705128,1.3417094 40.2834188,1.51846154 Z" id="Path"></path>
                            <path d="M44.0152991,1.51846154 C44.2282051,1.69521368 44.3326496,1.98846154 44.3326496,2.39418803 L44.3326496,4.58350427 L43.4609402,4.58350427 L43.4609402,2.60307692 C43.4609402,2.43034188 43.4368376,2.30179487 43.3926496,2.20940171 C43.3082906,2.04068376 43.1516239,1.96034188 42.9186325,1.96034188 C42.6334188,1.96034188 42.4365812,2.0808547 42.3281197,2.32589744 C42.2718803,2.45444444 42.2437607,2.6191453 42.2437607,2.82 L42.2437607,4.57948718 L41.3921368,4.57948718 L41.3921368,1.33367521 L42.215641,1.33367521 L42.215641,1.80769231 C42.3241026,1.63897436 42.428547,1.51846154 42.5249573,1.44615385 C42.6976923,1.31358974 42.9186325,1.24931624 43.1877778,1.24931624 C43.5292308,1.25333333 43.8023932,1.3417094 44.0152991,1.51846154 Z" id="Path"></path>
                            <path d="M47.8395726,4.18581197 C47.5664103,4.52324786 47.1486325,4.69598291 46.5902564,4.69598291 C46.0318803,4.69598291 45.6141026,4.52726496 45.3409402,4.18581197 C45.0677778,3.84837607 44.9271795,3.43863248 44.9271795,2.96059829 C44.9271795,2.49059829 45.0637607,2.08487179 45.3409402,1.73940171 C45.6141026,1.39393162 46.0318803,1.22521368 46.5902564,1.22521368 C47.1486325,1.22521368 47.5664103,1.39794872 47.8395726,1.73940171 C48.112735,2.0808547 48.2493162,2.49059829 48.2493162,2.96059829 C48.2533333,3.44264957 48.112735,3.84837607 47.8395726,4.18581197 Z M47.1606838,3.71581197 C47.2932479,3.53905983 47.3615385,3.28598291 47.3615385,2.96059829 C47.3615385,2.63521368 47.2932479,2.38213675 47.1606838,2.20940171 C47.0281197,2.03264957 46.8352991,1.9442735 46.5862393,1.9442735 C46.3371795,1.9442735 46.144359,2.03264957 46.0117949,2.20940171 C45.8792308,2.38615385 45.8109402,2.63521368 45.8109402,2.96059829 C45.8109402,3.28598291 45.8792308,3.53905983 46.0117949,3.71581197 C46.144359,3.8925641 46.3371795,3.98094017 46.5862393,3.98094017 C46.8352991,3.98094017 47.0241026,3.8925641 47.1606838,3.71581197 Z" id="Shape"></path>
                            <polygon id="Path" points="50.8644444 1.33367521 51.7763248 1.33367521 50.6033333 4.58752137 49.7075214 4.58752137 48.5425641 1.33367521 49.4986325 1.33367521 50.1775214 3.73188034"></polygon>
                            <path d="M53.5478632,2.60709402 C53.7045299,2.58700855 53.8210256,2.56290598 53.8893162,2.53076923 C54.0098291,2.47854701 54.0741026,2.39820513 54.0741026,2.28974359 C54.0741026,2.15717949 54.0258974,2.06478632 53.9335043,2.0125641 C53.8411111,1.96034188 53.7005128,1.93623932 53.5197436,1.93623932 C53.3148718,1.93623932 53.1702564,1.98444444 53.0858974,2.08487179 C53.025641,2.15717949 52.9854701,2.25760684 52.9653846,2.38213675 L52.1458974,2.38213675 C52.1619658,2.09692308 52.2423077,1.86393162 52.3869231,1.6791453 C52.6118803,1.39393162 53.0015385,1.24931624 53.5518803,1.24931624 C53.9094017,1.24931624 54.2267521,1.32162393 54.5039316,1.46222222 C54.7811111,1.60282051 54.9217094,1.87196581 54.9217094,2.26162393 L54.9217094,3.75196581 C54.9217094,3.85641026 54.9217094,3.98094017 54.9257265,4.12957265 C54.9337607,4.24205128 54.9498291,4.31837607 54.9779487,4.35452991 C55.0060684,4.39068376 55.0462393,4.42683761 55.1024786,4.45495726 L55.1024786,4.57948718 L54.178547,4.57948718 C54.1544444,4.51521368 54.134359,4.45094017 54.1263248,4.39470085 C54.1182906,4.33846154 54.1102564,4.27017094 54.1022222,4.19786325 C53.9857265,4.32641026 53.8491453,4.43487179 53.6924786,4.52324786 C53.5076923,4.62769231 53.2988034,4.67991453 53.0698291,4.67991453 C52.7725641,4.67991453 52.5275214,4.59555556 52.3347009,4.42683761 C52.1418803,4.25811966 52.0454701,4.02111111 52.0454701,3.71179487 C52.0454701,3.31008547 52.2021368,3.0208547 52.511453,2.84410256 C52.6801709,2.74769231 52.9332479,2.67538462 53.2626496,2.63521368 L53.5478632,2.60709402 Z M54.0660684,3.00478632 C54.0098291,3.03692308 53.9576068,3.06504274 53.9013675,3.08512821 C53.8451282,3.10521368 53.7688034,3.12529915 53.6723932,3.14538462 L53.4795726,3.18153846 C53.2988034,3.21367521 53.1662393,3.25384615 53.0899145,3.29803419 C52.9573504,3.37435897 52.8890598,3.49487179 52.8890598,3.65957265 C52.8890598,3.80418803 52.9292308,3.90863248 53.0135897,3.97290598 C53.0939316,4.03717949 53.194359,4.06931624 53.3108547,4.06931624 C53.495641,4.06931624 53.6683761,4.01709402 53.8250427,3.90863248 C53.9817094,3.80017094 54.0620513,3.60735043 54.0700855,3.32213675 L54.0700855,3.00478632 L54.0660684,3.00478632 Z" id="Shape"></path>
                            <path d="M55.3234188,1.96837607 L55.3234188,1.36179487 L55.7773504,1.36179487 L55.7773504,0.453931624 L56.6169231,0.453931624 L56.6169231,1.36179487 L57.1431624,1.36179487 L57.1431624,1.96837607 L56.6169231,1.96837607 L56.6169231,3.68769231 C56.6169231,3.82025641 56.6329915,3.90461538 56.6691453,3.93675214 C56.7012821,3.96888889 56.8057265,3.98495726 56.9784615,3.98495726 C57.0025641,3.98495726 57.0306838,3.98495726 57.0588034,3.98495726 C57.0869231,3.98495726 57.1150427,3.98094017 57.1431624,3.98094017 L57.1431624,4.61564103 L56.741453,4.6317094 C56.3397436,4.64376068 56.0665812,4.57547009 55.9179487,4.42282051 C55.8215385,4.32641026 55.7733333,4.17376068 55.7733333,3.97290598 L55.7733333,1.97239316 L55.3234188,1.97239316 L55.3234188,1.96837607 Z" id="Path"></path>
                            <path d="M58.7055556,0.944017094 L57.7055556,0.944017094 L57.7055556,0.160683761 L58.7055556,0.160683761 L58.7055556,0.944017094 Z M57.7055556,1.33367521 L58.7055556,1.33367521 L58.7055556,4.58752137 L57.7055556,4.58752137 L57.7055556,1.33367521 Z" id="Shape"></path>
                            <path d="M62.1042735,4.18581197 C61.8311111,4.52324786 61.4133333,4.69598291 60.8549573,4.69598291 C60.2965812,4.69598291 59.8788034,4.52726496 59.605641,4.18581197 C59.3324786,3.84837607 59.1918803,3.43863248 59.1918803,2.96059829 C59.1918803,2.49059829 59.3284615,2.08487179 59.605641,1.73940171 C59.8788034,1.39393162 60.2965812,1.22521368 60.8549573,1.22521368 C61.4133333,1.22521368 61.8311111,1.39794872 62.1042735,1.73940171 C62.3774359,2.0808547 62.5140171,2.49059829 62.5140171,2.96059829 C62.5140171,3.44264957 62.3774359,3.84837607 62.1042735,4.18581197 Z M61.4253846,3.71581197 C61.5579487,3.53905983 61.6262393,3.28598291 61.6262393,2.96059829 C61.6262393,2.63521368 61.5579487,2.38213675 61.4253846,2.20940171 C61.2928205,2.03264957 61.1,1.9442735 60.8509402,1.9442735 C60.6018803,1.9442735 60.4090598,2.03264957 60.2764957,2.20940171 C60.1439316,2.38615385 60.075641,2.63521368 60.075641,2.96059829 C60.075641,3.28598291 60.1439316,3.53905983 60.2764957,3.71581197 C60.4090598,3.8925641 60.6018803,3.98094017 60.8509402,3.98094017 C61.1,3.98094017 61.2888034,3.8925641 61.4253846,3.71581197 Z" id="Shape"></path>
                            <path d="M65.7477778,1.51846154 C65.9606838,1.69521368 66.0651282,1.98846154 66.0651282,2.39418803 L66.0651282,4.58350427 L65.1934188,4.58350427 L65.1934188,2.60307692 C65.1934188,2.43034188 65.1693162,2.30179487 65.1251282,2.20940171 C65.0407692,2.04068376 64.8841026,1.96034188 64.6511111,1.96034188 C64.3658974,1.96034188 64.1690598,2.0808547 64.0605983,2.32589744 C64.004359,2.45444444 63.9762393,2.6191453 63.9762393,2.82 L63.9762393,4.57948718 L63.1246154,4.57948718 L63.1246154,1.33367521 L63.9481197,1.33367521 L63.9481197,1.80769231 C64.0565812,1.63897436 64.1610256,1.51846154 64.2574359,1.44615385 C64.4301709,1.31358974 64.6511111,1.24931624 64.9202564,1.24931624 C65.2617094,1.25333333 65.5348718,1.3417094 65.7477778,1.51846154 Z" id="Path"></path>
                            <path d="M80.1450427,3.54709402 C80.1611111,3.69974359 80.2012821,3.80418803 80.2615385,3.86846154 C80.3659829,3.98094017 80.5628205,4.03717949 80.8480342,4.03717949 C81.0167521,4.03717949 81.1493162,4.01307692 81.2497436,3.9608547 C81.3501709,3.91264957 81.3983761,3.83632479 81.3983761,3.73589744 C81.3983761,3.63948718 81.3582051,3.56717949 81.2778632,3.51897436 C81.1975214,3.47076923 80.9002564,3.38239316 80.3900855,3.26188034 C80.0205128,3.16948718 79.7594017,3.05700855 79.6107692,2.92042735 C79.4581197,2.78384615 79.385812,2.59102564 79.385812,2.33393162 C79.385812,2.03264957 79.5023077,1.77555556 79.7393162,1.55863248 C79.9763248,1.3417094 80.3097436,1.23324786 80.7355556,1.23324786 C81.1412821,1.23324786 81.4747009,1.31358974 81.7317949,1.4782906 C81.9888889,1.63897436 82.1335043,1.92017094 82.1736752,2.31786325 L81.3220513,2.31786325 C81.31,2.20940171 81.2778632,2.12102564 81.2296581,2.05675214 C81.137265,1.94025641 80.9765812,1.88401709 80.7516239,1.88401709 C80.5668376,1.88401709 80.4342735,1.91213675 80.3539316,1.97239316 C80.2735897,2.02863248 80.2374359,2.09692308 80.2374359,2.17726496 C80.2374359,2.27367521 80.2776068,2.34598291 80.3619658,2.39017094 C80.4463248,2.43435897 80.7435897,2.51470085 81.2497436,2.62717949 C81.5871795,2.70752137 81.8442735,2.82803419 82.0129915,2.98871795 C82.1817094,3.1534188 82.2620513,3.3542735 82.2620513,3.59931624 C82.2620513,3.92068376 82.1415385,4.18581197 81.9005128,4.38666667 C81.6594872,4.59153846 81.2899145,4.69196581 80.7877778,4.69196581 C80.2735897,4.69196581 79.8959829,4.58350427 79.6509402,4.3665812 C79.4058974,4.14965812 79.2853846,3.87649573 79.2853846,3.54307692 L80.1450427,3.54307692 L80.1450427,3.54709402 Z" id="Path"></path>
                            <polygon id="Path" points="68.8088034 0.188803419 69.7287179 0.188803419 69.7287179 3.79615385 71.9260684 3.79615385 71.9260684 4.58752137 68.8088034 4.58752137"></polygon>
                            <path d="M73.7618803,2.60709402 C73.918547,2.58700855 74.0350427,2.56290598 74.1033333,2.53076923 C74.2238462,2.47854701 74.2881197,2.39820513 74.2881197,2.28974359 C74.2881197,2.15717949 74.2399145,2.06478632 74.1475214,2.0125641 C74.0551282,1.96034188 73.9145299,1.93623932 73.7337607,1.93623932 C73.5288889,1.93623932 73.3842735,1.98444444 73.2999145,2.08487179 C73.2396581,2.15717949 73.1994872,2.25760684 73.1794017,2.38213675 L72.3599145,2.38213675 C72.3759829,2.09692308 72.4563248,1.86393162 72.6009402,1.6791453 C72.8258974,1.39393162 73.2155556,1.24931624 73.7658974,1.24931624 C74.1234188,1.24931624 74.4407692,1.32162393 74.7179487,1.46222222 C74.9951282,1.60282051 75.1357265,1.87196581 75.1357265,2.26162393 L75.1357265,3.75196581 C75.1357265,3.85641026 75.1357265,3.98094017 75.1397436,4.12957265 C75.1477778,4.24205128 75.1638462,4.31837607 75.1919658,4.35452991 C75.2200855,4.39068376 75.2602564,4.42683761 75.3164957,4.45495726 L75.3164957,4.57948718 L74.3925641,4.57948718 C74.3684615,4.51521368 74.3483761,4.45094017 74.3403419,4.39470085 C74.3323077,4.33846154 74.3242735,4.27017094 74.3162393,4.19786325 C74.1997436,4.32641026 74.0631624,4.43487179 73.9064957,4.52324786 C73.7217094,4.62769231 73.5128205,4.67991453 73.2838462,4.67991453 C72.9865812,4.67991453 72.7415385,4.59555556 72.5487179,4.42683761 C72.3558974,4.25811966 72.2594872,4.02111111 72.2594872,3.71179487 C72.2594872,3.31008547 72.4161538,3.0208547 72.7254701,2.84410256 C72.894188,2.74769231 73.147265,2.67538462 73.4766667,2.63521368 L73.7618803,2.60709402 Z M74.2841026,3.00478632 C74.2278632,3.03692308 74.175641,3.06504274 74.1194017,3.08512821 C74.0631624,3.10521368 73.9868376,3.12529915 73.8904274,3.14538462 L73.6976068,3.18153846 C73.5168376,3.21367521 73.3842735,3.25384615 73.3079487,3.29803419 C73.1753846,3.37435897 73.107094,3.49487179 73.107094,3.65957265 C73.107094,3.80418803 73.147265,3.90863248 73.2316239,3.97290598 C73.3119658,4.03717949 73.4123932,4.06931624 73.5288889,4.06931624 C73.7136752,4.06931624 73.8864103,4.01709402 74.0430769,3.90863248 C74.1997436,3.80017094 74.2800855,3.60735043 74.2881197,3.32213675 L74.2881197,3.00478632 L74.2841026,3.00478632 Z" id="Shape"></path>
                            <path d="M78.6506838,1.72333333 C78.8957265,2.03264957 79.0162393,2.43034188 79.0162393,2.91641026 C79.0162393,3.4225641 78.8957265,3.84034188 78.6547009,4.17376068 C78.4136752,4.50717949 78.0802564,4.67188034 77.6504274,4.67188034 C77.3812821,4.67188034 77.164359,4.61965812 76.9996581,4.51119658 C76.9032479,4.44692308 76.7947863,4.33444444 76.6823077,4.17777778 L76.6823077,4.58752137 L75.842735,4.58752137 L75.842735,0.192820513 L76.694359,0.192820513 L76.694359,1.75547009 C76.8028205,1.60282051 76.9233333,1.49034188 77.0518803,1.41 C77.2045299,1.30957265 77.4013675,1.26136752 77.6423932,1.26136752 C78.0722222,1.26136752 78.405641,1.41401709 78.6506838,1.72333333 Z M77.9396581,3.70376068 C78.0601709,3.52700855 78.1244444,3.29401709 78.1244444,3.00478632 C78.1244444,2.77581197 78.0923077,2.58299145 78.0320513,2.43034188 C77.9195726,2.14512821 77.7066667,2.00051282 77.4013675,2.00051282 C77.0920513,2.00051282 76.8751282,2.14111111 76.7586325,2.42230769 C76.6983761,2.57094017 76.6702564,2.76376068 76.6702564,3.00076923 C76.6702564,3.27794872 76.7305128,3.51094017 76.8550427,3.6917094 C76.9795726,3.87649573 77.1683761,3.96487179 77.4254701,3.96487179 C77.6464103,3.96888889 77.8191453,3.88051282 77.9396581,3.70376068 Z" id="Shape"></path>
                        </g>
                    </g>
                    <polygon id="Path" fill="#001A3F" fill-rule="nonzero" points="51.1255556 0.0241025641 51.1255556 4.3625641 58.1554701 4.3625641 58.1554701 23.4839316 63.3174359 23.4839316 63.3174359 4.3625641 70.3473504 4.3625641 70.3473504 0.0241025641"></polygon>
                    <rect id="Rectangle" fill="#001A3F" fill-rule="nonzero" x="76.9112821" y="0.0241025641" width="5.15794872" height="23.4598291"></rect>
                    <polygon id="Path" fill="#001A3F" fill-rule="nonzero" points="91.7905983 0.0241025641 91.7905983 23.4839316 108.381197 23.4839316 108.381197 19.1494872 96.948547 19.1494872 96.948547 0.0241025641"></polygon>
                    <polygon id="Path" fill="#001A3F" fill-rule="nonzero" points="26.1311966 23.4598291 30.9637607 23.4598291 30.9637607 7.75299145 31.0280342 7.75299145 40.7855556 23.4598291 45.9435043 23.4598291 45.9435043 0 41.1149573 0 41.1149573 15.7389744 41.0506838 15.7389744 31.2570085 0 26.1311966 0"></polygon>
                    <path d="M20.0533333,0 L14.8953846,0 L14.8953846,14.5900855 C14.8953846,18.072906 13.7103419,19.6837607 10.0306838,19.6837607 C5.85692308,19.6837607 5.20213675,17.1529915 5.20213675,14.5900855 L5.20213675,0 L0.0401709402,0 L0.0401709402,14.5900855 C0.0401709402,20.9652137 3.71982906,24.0222222 10.0306838,24.0222222 C16.3053846,24.0222222 20.0533333,20.9330769 20.0533333,14.5900855 L20.0533333,0 Z" id="Path" fill="#001A3F" fill-rule="nonzero"></path>
                    <path d="M116.40735,23.4839316 C117.600427,23.4839316 118.576581,22.4716239 118.576581,21.278547 C118.576581,20.0493162 117.600427,19.0731624 116.40735,19.0731624 C115.17812,19.0731624 114.201966,20.0493162 114.201966,21.278547 C114.205983,22.475641 115.182137,23.4839316 116.40735,23.4839316 M116.40735,13.0073504 C117.600427,13.0073504 118.576581,11.9950427 118.576581,10.8019658 C118.576581,9.57273504 117.600427,8.5965812 116.40735,8.5965812 C115.17812,8.5965812 114.201966,9.57273504 114.201966,10.8019658 C114.205983,11.9950427 115.182137,13.0073504 116.40735,13.0073504" id="Shape" fill="#2FABE1" fill-rule="nonzero"></path>
                    <path d="M2.31384615,33.5266667 L3.30205128,32.6991453 L3.63948718,32.3898291 C3.72786325,32.2974359 3.80418803,32.1929915 3.86042735,32.0805128 C3.92871795,31.9358974 3.99299145,31.7832479 4.04119658,31.6305983 L4.29025641,30.8954701 L4.26213675,30.8954701 C4.1617094,31.1405128 4.00504274,31.361453 3.80820513,31.5422222 C3.61538462,31.6988889 3.41452991,31.8515385 3.20965812,31.9921368 C2.98068376,32.1488034 2.76376068,32.3215385 2.55888889,32.5103419 C2.31384615,32.7433333 2.11700855,33.0205128 1.97239316,33.325812 L1.97239316,33.2976923 L2.32188034,32.1608547 L2.52675214,31.3453846 C2.57897436,31.1324786 2.65529915,30.9276068 2.75974359,30.7347863 C2.87623932,30.5419658 3.02888889,30.377265 3.21367521,30.2487179 L3.21367521,30.2205983 C2.74367521,30.3451282 2.33794872,30.6383761 2.07282051,31.0481197 C1.77957265,31.4739316 1.62692308,31.9800855 1.63495726,32.4942735 L1.63495726,34.2979487 C1.8117094,34.0047009 2.04068376,33.7395726 2.31384615,33.5266667 Z M3.53102564,31.317265 C3.76401709,31.0762393 3.98495726,30.8231624 4.18982906,30.5580342 L4.76025641,29.8269231 C4.94102564,29.5939316 5.14589744,29.3850427 5.3708547,29.1922222 L5.34273504,29.1641026 C5.17401709,29.3087179 4.97316239,29.4131624 4.75623932,29.4653846 C4.4991453,29.5457265 4.25008547,29.6582051 4.02111111,29.8028205 C3.72384615,29.995641 3.47076923,30.2447009 3.27393162,30.5379487 C2.98470085,30.9918803 2.77982906,31.4940171 2.66333333,32.0202564 C2.98068376,31.8234188 3.26991453,31.5864103 3.53102564,31.317265 Z M0.638717949,38.07 C0.815470085,38.3351282 1.0082906,38.5882051 1.21717949,38.8292308 C1.45418803,39.1144444 1.66709402,39.4237607 1.84786325,39.7451282 L1.87598291,39.7451282 C1.85589744,39.608547 1.84384615,39.4759829 1.84384615,39.3394017 L1.84384615,38.9738462 C1.86393162,38.7408547 1.91213675,38.5118803 1.98846154,38.2909402 L2.29376068,37.2344444 L2.57094017,36.061453 C2.64726496,35.7159829 2.67136752,35.3584615 2.63923077,35.0049573 L2.60307692,35.0049573 C2.54683761,35.2379487 2.45444444,35.4588889 2.32991453,35.6637607 L1.92418803,36.3346154 C1.78358974,36.575641 1.65905983,36.8247009 1.55863248,37.0817949 C1.45418803,37.3589744 1.40196581,37.6522222 1.40598291,37.9454701 C1.41,38.0900855 1.43008547,38.2306838 1.46623932,38.367265 C1.49435897,38.4717094 1.51444444,38.5801709 1.52649573,38.6926496 L1.50239316,38.6926496 C1.43811966,38.3230769 1.3417094,37.9615385 1.21316239,37.6120513 L0.835555556,36.6559829 L0.518205128,35.8525641 C0.445897436,35.6637607 0.401709402,35.462906 0.393675214,35.2580342 L0.40974359,34.8523077 C0.425811966,34.7558974 0.425811966,34.6193162 0.425811966,34.4666667 L0.405726496,34.4666667 C0.325384615,34.6876068 0.257094017,34.908547 0.200854701,35.1375214 C0.124529915,35.4066667 0.0803418803,35.6838462 0.0763247863,35.9650427 C0.0642735043,36.3828205 0.112478632,36.8005983 0.224957265,37.2063248 C0.321367521,37.5076068 0.461965812,37.8008547 0.638717949,38.07 Z M5.33068376,45.0637607 C5.42307692,45.0717949 5.51948718,45.075812 5.61188034,45.075812 C5.74042735,45.075812 5.86897436,45.0677778 5.99752137,45.0517094 L6.45948718,44.9753846 L7.19461538,44.8066667 L8.3957265,44.5094017 L7.54410256,44.264359 C7.27495726,44.1719658 7.02589744,44.0193162 6.82102564,43.8184615 L5.94529915,43.0190598 L5.24632479,42.3964103 L4.74418803,41.9424786 L4.72008547,41.9705983 C4.76025641,42.0308547 5.07760684,42.6695726 5.07760684,42.6695726 L5.14991453,42.7740171 L5.40299145,43.2359829 L5.49940171,43.4207692 C5.60384615,43.6176068 5.75247863,43.7903419 5.93324786,43.9188889 C6.25059829,44.1759829 6.62017094,44.3607692 7.01786325,44.4571795 L7.01786325,44.4852991 L6.05376068,44.3326496 C5.93726496,44.3125641 5.80470085,44.3045299 5.67615385,44.2924786 L5.21418803,44.2523077 L4.84863248,44.1960684 L4.49111111,44.1558974 L4.30230769,44.135812 C4.08538462,44.1157265 3.86846154,44.0755556 3.65555556,44.0193162 C3.45068376,43.967094 3.25384615,43.882735 3.07307692,43.7742735 C2.84811966,43.6376923 2.63923077,43.4770085 2.45042735,43.2962393 L2.42230769,43.324359 C2.52273504,43.497094 2.63923077,43.6617949 2.77179487,43.8144444 C2.93247863,44.0032479 3.11324786,44.1759829 3.30606838,44.3286325 C3.53905983,44.5134188 3.79615385,44.6620513 4.06931624,44.7745299 C4.39470085,44.9030769 4.73615385,44.991453 5.08564103,45.035641 L5.33068376,45.0637607 Z M1.30957265,36.9853846 L1.3417094,36.9853846 C1.35376068,36.8488034 1.38188034,36.7122222 1.41803419,36.5796581 C1.46623932,36.4270085 1.53051282,36.2823932 1.6108547,36.1417949 C1.73136752,35.932906 1.86393162,35.7280342 2.00452991,35.5311966 C2.17726496,35.2901709 2.40623932,34.9647863 2.69547009,34.5510256 C2.87623932,34.2698291 3.01282051,33.968547 3.10119658,33.6471795 L3.30606838,32.9 L3.28196581,32.9 C3.24982906,32.9763248 3.21367521,33.0486325 3.16547009,33.1169231 C3.11324786,33.1892308 3.05700855,33.2535043 3.00076923,33.3217949 C2.91641026,33.4182051 2.82803419,33.5065812 2.73162393,33.5909402 L2.2857265,33.9966667 C2.00452991,34.2296581 1.77957265,34.5188889 1.62290598,34.8482906 C1.51444444,35.1254701 1.43008547,35.4106838 1.36982906,35.6999145 L1.3457265,35.6999145 C1.3457265,35.5633333 1.36581197,35.4307692 1.36982906,35.294188 L1.36982906,34.7880342 C1.36982906,34.5309402 1.35376068,34.2296581 1.31760684,33.884188 C1.28145299,33.5387179 1.26940171,33.0928205 1.26940171,32.5424786 C1.26940171,32.3737607 1.30153846,32.2050427 1.36982906,32.0523932 C1.43811966,31.8997436 1.49837607,31.7511111 1.5465812,31.6145299 L1.53051282,31.6145299 C1.2091453,32.0082051 0.956068376,32.4541026 0.787350427,32.9321368 C0.658803419,33.3177778 0.586495726,33.7235043 0.582478632,34.1292308 C0.586495726,34.5911966 0.678888889,35.0491453 0.851623932,35.4749573 C1.04042735,35.9650427 1.19307692,36.4711966 1.30957265,36.9853846 Z M3.99700855,43.6698291 L5.63598291,44.0434188 C5.42709402,43.8144444 5.24230769,43.5694017 5.08564103,43.3042735 C4.94905983,43.0793162 4.8365812,42.8423077 4.74820513,42.5932479 C4.64376068,42.3120513 4.4991453,41.9384615 4.31034188,41.4724786 C4.26213675,41.3318803 4.20991453,41.1993162 4.14162393,41.0667521 C4.08136752,40.9462393 4.01307692,40.8217094 3.93675214,40.6931624 L3.65153846,40.2512821 L3.2257265,39.6406838 L3.19760684,39.6688034 C3.24982906,39.8415385 3.31811966,40.1508547 3.41854701,40.5967521 L3.68769231,41.8621368 C3.73991453,42.1553846 3.85641026,42.4365812 4.03717949,42.6776068 C4.24205128,42.9588034 4.47905983,43.2118803 4.74418803,43.4368376 L4.71606838,43.4649573 C4.48709402,43.3645299 4.27820513,43.2279487 4.0934188,43.0592308 C3.80820513,42.8222222 3.49487179,42.6253846 3.16145299,42.4647009 C2.63119658,42.2076068 2.11299145,41.9223932 1.61888889,41.6010256 C1.24529915,41.3519658 0.952051282,40.9984615 0.775299145,40.5847009 L0.747179487,40.6088034 C0.843589744,41.0145299 1.0042735,41.404188 1.22521368,41.7617094 C1.43410256,42.0991453 1.69521368,42.4044444 1.99247863,42.6655556 C2.2817094,42.9226496 2.60709402,43.1395726 2.9525641,43.3123077 C3.29,43.4729915 3.63948718,43.5935043 3.99700855,43.6698291 L3.99700855,43.6698291 Z M1.58675214,41.0105128 L3.49888889,42.2758974 L3.28196581,41.785812 C3.21769231,41.617094 3.16948718,41.4483761 3.13735043,41.2716239 L3.04897436,40.6409402 L2.96059829,39.8013675 L2.78384615,38.4837607 C2.72358974,38.1382906 2.63119658,37.8008547 2.50666667,37.4754701 L2.4825641,37.4754701 C2.4865812,37.7245299 2.47452991,37.9735897 2.44641026,38.2186325 C2.42230769,38.411453 2.38615385,38.6002564 2.34196581,38.7890598 L2.24153846,39.267094 C2.2134188,39.4317949 2.20136752,39.6005128 2.20136752,39.7692308 C2.2134188,40.0223077 2.26965812,40.2713675 2.37008547,40.504359 C2.46247863,40.7574359 2.56692308,41.0024786 2.6874359,41.2394872 L2.66333333,41.2676068 C2.4142735,40.8578632 2.12102564,40.4722222 1.79965812,40.1187179 L1.02837607,39.2911966 C0.803418803,39.0662393 0.606581197,38.8211966 0.42982906,38.5600855 C0.253076923,38.2869231 0.144615385,37.9776068 0.108461538,37.6562393 C0.0883760684,37.7365812 0.0723076923,37.8209402 0.0602564103,37.9012821 C0.0482051282,37.9816239 0.0441880342,38.0619658 0.0441880342,38.1463248 C0.0441880342,38.4476068 0.0964102564,38.7488889 0.196837607,39.0341026 C0.297264957,39.3273504 0.425811966,39.608547 0.582478632,39.8736752 C0.727094017,40.1187179 0.895811966,40.3517094 1.08461538,40.5605983 C1.22923077,40.7293162 1.39794872,40.8819658 1.58675214,41.0105128 Z M17.2735043,29.8188889 L17.8439316,30.5540171 C18.0488034,30.8191453 18.2697436,31.0722222 18.502735,31.3132479 C18.7638462,31.5823932 19.057094,31.8234188 19.3704274,32.0282906 C19.2539316,31.5020513 19.0490598,30.9999145 18.7598291,30.5459829 C18.5629915,30.252735 18.3058974,30.0036752 18.0086325,29.8108547 C17.7796581,29.6662393 17.5305983,29.5497436 17.2735043,29.4653846 C17.0605983,29.4051282 16.8597436,29.3006838 16.6910256,29.1560684 L16.662906,29.184188 C16.8878632,29.3770085 17.092735,29.5899145 17.2694872,29.822906 L17.2735043,29.8188889 Z M18.9647009,43.7742735 C18.7839316,43.882735 18.587094,43.967094 18.3822222,44.0193162 C18.1693162,44.0715385 17.9523932,44.1117094 17.731453,44.135812 L17.5466667,44.1558974 L17.1891453,44.1960684 L16.8276068,44.2523077 C16.707094,44.2723932 16.5182906,44.2844444 16.365641,44.2924786 L15.9880342,44.3326496 L15.5823077,44.392906 L15.0279487,44.4812821 L15.0279487,44.4571795 C15.4216239,44.3567521 15.7871795,44.1719658 16.1005128,43.9148718 C16.2812821,43.7863248 16.4258974,43.6135897 16.5263248,43.4167521 L16.622735,43.2319658 L16.875812,42.7740171 C16.8958974,42.7378632 16.92,42.7017094 16.9481197,42.6695726 L17.305641,41.9665812 L17.2735043,41.9424786 C17.1088034,42.0991453 16.9441026,42.2517949 16.7713675,42.4004274 L16.0723932,43.0190598 L15.1966667,43.8144444 C14.995812,44.0152991 14.7507692,44.1719658 14.485641,44.2683761 L13.6340171,44.5134188 L14.8351282,44.8106838 L15.5662393,44.9794017 L16.0362393,45.0557265 C16.1647863,45.075812 16.2933333,45.0838462 16.4218803,45.0838462 L16.707094,45.0717949 L16.9521368,45.0436752 C17.3016239,44.9994872 17.6430769,44.9111111 17.9684615,44.7825641 C18.2416239,44.6700855 18.4987179,44.521453 18.7317094,44.3366667 C18.928547,44.18 19.1133333,44.007265 19.2780342,43.8144444 C19.4105983,43.6617949 19.527094,43.497094 19.6275214,43.324359 L19.5873504,43.3082906 C19.398547,43.4850427 19.185641,43.6417094 18.9647009,43.7742735 Z M20.4068376,41.5970085 C19.912735,41.9183761 19.3945299,42.2076068 18.8642735,42.4606838 C18.5308547,42.6173504 18.2135043,42.8182051 17.9323077,43.0552137 C17.7475214,43.2239316 17.5386325,43.3605128 17.3096581,43.4609402 L17.2815385,43.4328205 C17.5466667,43.2078632 17.7836752,42.9507692 17.988547,42.6735897 C18.1652991,42.4325641 18.285812,42.1553846 18.3380342,41.8581197 C18.4264103,41.4644444 18.5147863,41.0426496 18.6071795,40.5967521 L18.8281197,39.6688034 L18.8,39.6487179 L18.374188,40.2593162 L18.0889744,40.6971795 C18.0086325,40.8257265 17.944359,40.9502564 17.8800855,41.0747863 C17.815812,41.2073504 17.7595726,41.3439316 17.7113675,41.4805128 L17.2694872,42.6052991 C17.1851282,42.8503419 17.0726496,43.0873504 16.9360684,43.3082906 C16.7794017,43.5694017 16.5946154,43.8144444 16.3857265,44.0353846 L16.9481197,43.9188889 L18.0247009,43.6818803 C18.3862393,43.6055556 18.7357265,43.4770085 19.0651282,43.3082906 C19.4105983,43.1355556 19.7359829,42.9186325 20.0252137,42.6655556 C20.3224786,42.4044444 20.5795726,42.0991453 20.7884615,41.7657265 C21.0094017,41.4082051 21.1741026,41.0145299 21.2705128,40.6047863 L21.2423932,40.5766667 C21.0736752,40.9904274 20.7804274,41.3439316 20.4068376,41.5970085 L20.4068376,41.5970085 Z M21.2022222,36.6519658 C21.065641,36.9452137 20.937094,37.2625641 20.8165812,37.6080342 C20.6880342,37.9615385 20.5916239,38.3230769 20.5273504,38.6926496 L20.5032479,38.6926496 C20.5152991,38.584188 20.5353846,38.4757265 20.5635043,38.367265 C20.5996581,38.2266667 20.6197436,38.0860684 20.6237607,37.941453 C20.6277778,37.644188 20.5755556,37.3509402 20.4711111,37.0777778 C20.3706838,36.8206838 20.2501709,36.5676068 20.1055556,36.3305983 L19.6998291,35.6597436 C19.5752991,35.4548718 19.482906,35.2339316 19.4266667,35.0009402 L19.398547,35.0009402 C19.3664103,35.3544444 19.3905128,35.7119658 19.4668376,36.0574359 C19.5471795,36.4551282 19.6395726,36.8447863 19.7440171,37.2304274 C19.8524786,37.6160684 19.952906,37.9695726 20.0493162,38.2869231 C20.125641,38.5078632 20.1778632,38.7368376 20.1939316,38.9698291 L20.1939316,39.3313675 C20.1939316,39.4679487 20.1818803,39.6045299 20.1617949,39.737094 L20.1818803,39.737094 C20.3626496,39.4117094 20.5715385,39.1064103 20.8125641,38.8211966 C21.021453,38.5801709 21.2142735,38.327094 21.3910256,38.0619658 C21.5717949,37.7928205 21.7123932,37.5035897 21.8128205,37.1982906 C21.9293162,36.7925641 21.9815385,36.3707692 21.9654701,35.9449573 C21.961453,35.6637607 21.917265,35.3865812 21.8409402,35.1174359 C21.7887179,34.8884615 21.7204274,34.6635043 21.6360684,34.4465812 L21.6039316,34.4465812 L21.62,34.8322222 C21.6360684,34.9326496 21.6360684,35.0732479 21.6360684,35.2379487 C21.6240171,35.4428205 21.5838462,35.6436752 21.5115385,35.8324786 L21.2022222,36.6519658 L21.2022222,36.6519658 Z M20.4188889,34.8442735 C20.2622222,34.5148718 20.037265,34.225641 19.7560684,33.9926496 L19.3101709,33.5869231 L19.0450427,33.3137607 C18.9847863,33.2494872 18.9325641,33.1811966 18.8803419,33.1088889 C18.8321368,33.0365812 18.7919658,32.9602564 18.7638462,32.8799145 L18.7357265,32.8799145 L18.9405983,33.627094 C19.0329915,33.9444444 19.1695726,34.2497436 19.3463248,34.5309402 L20.037265,35.5111111 C20.1778632,35.7079487 20.3104274,35.9128205 20.4309402,36.1217094 C20.5112821,36.2623077 20.5755556,36.4069231 20.6237607,36.5595726 C20.6599145,36.6921368 20.6840171,36.8287179 20.7000855,36.9652991 L20.7322222,36.9652991 C20.8447009,36.4511111 20.9973504,35.9449573 21.1821368,35.4548718 C21.3548718,35.0250427 21.4432479,34.5630769 21.447265,34.1011111 C21.4432479,33.6913675 21.3749573,33.2896581 21.2423932,32.9 C21.0736752,32.4259829 20.8205983,31.9841026 20.4992308,31.5984615 L20.4711111,31.5984615 L20.6478632,32.0363248 C20.7161538,32.1889744 20.7523077,32.3576923 20.7482906,32.5264103 C20.7482906,33.0767521 20.7322222,33.5266667 20.7000855,33.8681197 C20.6679487,34.2095726 20.6518803,34.5108547 20.6518803,34.7719658 L20.6518803,35.2741026 C20.6518803,35.4026496 20.6679487,35.5392308 20.6759829,35.6798291 L20.6518803,35.6798291 C20.5916239,35.3905983 20.5112821,35.1094017 20.4068376,34.8362393 L20.4188889,34.8362393 L20.4188889,34.8442735 Z M19.2659829,30.7428205 C19.3664103,30.935641 19.4467521,31.1405128 19.4989744,31.3534188 L19.7038462,32.1688889 C19.7801709,32.4782051 19.8966667,32.855812 20.0533333,33.3057265 L20.0533333,33.3338462 C19.9087179,33.028547 19.7118803,32.7553846 19.4668376,32.5183761 C19.2619658,32.3295726 19.0450427,32.1608547 18.8160684,32.004188 C18.6071795,31.8635897 18.4103419,31.7149573 18.2175214,31.5542735 C18.0206838,31.3735043 17.8640171,31.148547 17.7676068,30.8994872 L17.7394872,30.8994872 L17.988547,31.6305983 C18.0367521,31.7832479 18.0970085,31.9358974 18.1693162,32.0805128 C18.2255556,32.1929915 18.3018803,32.2974359 18.3902564,32.3898291 L18.7317094,32.6991453 C19.1133333,33.0245299 19.4387179,33.3017094 19.7199145,33.5266667 C19.9890598,33.7435897 20.2140171,34.0087179 20.3907692,34.3059829 L20.3907692,32.4982906 C20.3947863,31.9841026 20.2421368,31.4779487 19.952906,31.0521368 C19.6917949,30.6423932 19.2860684,30.3491453 18.8160684,30.2246154 L18.8160684,30.252735 C18.9968376,30.3812821 19.1494872,30.5459829 19.2659829,30.7428205 L19.2659829,30.7428205 Z M16.277265,45.5940171 C16.1326496,45.59 15.9920513,45.5739316 15.851453,45.5417949 L15.3734188,45.4534188 L14.8511966,45.2766667 L14.1401709,45.0195726 L13.0394872,44.6459829 C12.8024786,44.565641 12.5534188,44.5254701 12.3003419,44.5294872 C12.047265,44.5335043 11.794188,44.5616239 11.5491453,44.6178632 L10.982735,44.7504274 C10.8742735,44.7182906 10.6975214,44.6741026 10.4404274,44.6178632 C10.1953846,44.5616239 9.94632479,44.5335043 9.69324786,44.5294872 C9.44418803,44.5294872 9.19512821,44.5736752 8.95811966,44.6580342 L7.8574359,45.0436752 L6.59606838,45.4775214 C6.31888889,45.5618803 6.03367521,45.6060684 5.74444444,45.6020513 C5.62393162,45.6020513 5.5034188,45.5940171 5.38290598,45.5779487 C5.27846154,45.5658974 5.17401709,45.5377778 5.07358974,45.5016239 L4.69598291,45.3730769 L4.20589744,45.1360684 L4.18179487,45.1601709 C4.45495726,45.4252991 4.76025641,45.6582906 5.08564103,45.8551282 C5.51547009,46.1162393 6.00555556,46.2568376 6.5117094,46.2608547 C6.69649573,46.2608547 6.88128205,46.2488034 7.06606838,46.2206838 C7.23478632,46.1925641 7.39948718,46.144359 7.55615385,46.0800855 C7.7208547,46.0117949 7.90162393,45.9274359 8.09846154,45.8229915 L8.80948718,45.417265 L9.54059829,44.9673504 C9.74948718,44.8548718 9.98649573,44.7946154 10.2235043,44.7986325 C10.3279487,44.7986325 10.4323932,44.8187179 10.5328205,44.8508547 C10.1953846,45.0396581 9.8017094,45.2726496 9.36384615,45.5417949 C8.88982906,45.8350427 8.46401709,46.1925641 8.08641026,46.6023077 L8.5242735,46.9879487 C8.90991453,46.5340171 9.3357265,46.1162393 9.8017094,45.7426496 C10.1552137,45.4333333 10.5569231,45.1842735 10.9907692,45.0075214 C11.4246154,45.1882906 11.8223077,45.4373504 12.1798291,45.7426496 C12.6498291,46.1122222 13.0796581,46.53 13.4652991,46.9839316 L13.9031624,46.5982906 C13.5215385,46.1845299 13.0876923,45.8310256 12.605641,45.5417949 C12.1597436,45.2686325 11.7620513,45.0436752 11.4165812,44.862906 C11.5250427,44.8347863 11.6415385,44.8147009 11.7540171,44.8106838 C11.9950427,44.8066667 12.2280342,44.862906 12.4409402,44.9794017 C12.6417949,45.0918803 12.8868376,45.2445299 13.1800855,45.4293162 L13.8509402,45.8270085 C14.0196581,45.9274359 14.1964103,46.015812 14.3811966,46.0841026 C14.5378632,46.1403419 14.698547,46.188547 14.8632479,46.2247009 C15.0319658,46.2568376 15.2006838,46.2769231 15.3694017,46.2769231 L15.4698291,46.2769231 C15.8755556,46.2688889 16.2732479,46.1805128 16.6468376,46.0198291 C17.092735,45.8310256 17.4864103,45.5377778 17.7957265,45.1682051 L17.7957265,45.1320513 C17.518547,45.2646154 17.2333333,45.3811111 16.9400855,45.4815385 C16.7231624,45.5498291 16.4982051,45.5859829 16.2692308,45.5859829 L16.277265,45.5940171 Z M21.9855556,38.1061538 L21.9855556,38.025812 C21.9855556,37.985641 21.9815385,37.9454701 21.9735043,37.9052991 L21.9252991,37.6602564 C21.8891453,37.9816239 21.7806838,38.2909402 21.6039316,38.5600855 C21.4271795,38.8171795 21.2263248,39.0662393 21.0134188,39.2952137 L20.9732479,39.3394017 L20.2421368,40.122735 C19.9247863,40.4722222 19.6395726,40.8498291 19.3945299,41.2515385 C19.5150427,41.0145299 19.6154701,40.7694872 19.695812,40.5164103 C19.784188,40.2794017 19.8364103,40.034359 19.8484615,39.7812821 C19.8484615,39.6125641 19.8364103,39.4438462 19.8082906,39.2751282 C19.7801709,39.1305128 19.7520513,38.9698291 19.7158974,38.797094 C19.6676923,38.624359 19.6395726,38.4194872 19.6154701,38.2186325 C19.5873504,37.9735897 19.5712821,37.7245299 19.5712821,37.4754701 L19.5511966,37.4754701 L19.5511966,37.4794872 L19.5230769,37.4794872 C19.398547,37.8088889 19.3061538,38.1503419 19.2458974,38.495812 L19.0691453,39.8094017 L18.9807692,40.6489744 L18.8923932,41.2796581 C18.8602564,41.4523932 18.8160684,41.6211111 18.755812,41.785812 C18.7035897,41.9183761 18.6433333,42.0589744 18.5710256,42.1915385 C18.5589744,42.215641 18.542906,42.2397436 18.5308547,42.2638462 L18.542906,42.2638462 L18.542906,42.2638462 L19.185641,41.8380342 L20.4751282,40.9944444 C20.6599145,40.8658974 20.8286325,40.7132479 20.977265,40.5445299 C21.1660684,40.335641 21.3307692,40.1066667 21.4673504,39.8616239 C21.5597436,39.6969231 21.6400855,39.5282051 21.7123932,39.3554701 L21.8409402,39.0220513 C21.9413675,38.7368376 21.9935897,38.4355556 21.9935897,38.1342735 C21.9815385,38.1262393 21.9815385,38.114188 21.9815385,38.0981197 L21.9855556,38.1061538 Z M14.485641,30.5017949 C14.5338462,30.5218803 14.5820513,30.55 14.6222222,30.5781197 C14.654359,30.6102564 14.6824786,30.6423932 14.7065812,30.678547 C14.7266667,30.7106838 14.7588034,30.7307692 14.7949573,30.7307692 C14.8431624,30.7307692 14.8712821,30.7106838 14.8712821,30.678547 C14.8712821,30.6464103 14.8712821,30.6303419 14.8592308,30.6383761 C14.8471795,30.6464103 14.8431624,30.6383761 14.8431624,30.5982051 C14.8471795,30.5419658 14.8311111,30.4857265 14.7949573,30.4455556 C14.7387179,30.3812821 14.6463248,30.3611966 14.57,30.3933333 C14.5579487,30.3812821 14.5418803,30.3692308 14.5217949,30.3692308 L14.4816239,30.3692308 C14.4334188,30.3692308 14.4052991,30.3852991 14.4052991,30.421453 C14.4052991,30.4576068 14.4334188,30.4817094 14.4816239,30.4977778 L14.4816239,30.5017949 L14.485641,30.5017949 Z M11.7459829,29.8751282 L11.7982051,29.8751282 C11.8986325,29.8389744 12.0030769,29.8188889 12.1075214,29.8108547 L12.4690598,29.8108547 C12.5293162,29.8148718 12.5855556,29.7907692 12.6257265,29.7465812 C12.6538462,29.7104274 12.6819658,29.6702564 12.7020513,29.6300855 C12.6257265,29.5296581 12.5132479,29.4653846 12.392735,29.4452991 C12.3083761,29.4292308 12.22,29.4211966 12.135641,29.4171795 C12.0271795,29.437265 11.922735,29.4694017 11.8263248,29.5135897 L11.5170085,29.6341026 C11.4286325,29.6140171 11.3804274,29.6341026 11.364359,29.6903419 C11.408547,29.7345299 11.4567521,29.7747009 11.5049573,29.8108547 C11.5732479,29.8590598 11.6576068,29.8831624 11.7459829,29.8751282 L11.7459829,29.8751282 Z M10.9666667,44.0233333 C15.2689744,44.0233333 18.755812,40.5405128 18.755812,36.2382051 C18.755812,31.9358974 15.2729915,28.4490598 10.9706838,28.4490598 C6.66837607,28.4490598 3.18153846,31.9358974 3.18153846,36.234188 C3.18153846,36.234188 3.18153846,36.234188 3.18153846,36.2382051 C3.18555556,40.5364957 6.66837607,44.0193162 10.9666667,44.0233333 Z M3.57923077,36.4350427 L4.7642735,36.4350427 C4.78034188,36.9532479 4.86068376,37.471453 5.00931624,37.9695726 C4.97316239,37.9615385 4.94102564,37.9374359 4.92094017,37.9052991 L4.88478632,37.8691453 L4.75623932,37.684359 L4.53931624,37.7647009 C4.53931624,37.8852137 4.4991453,37.9294017 4.41076923,37.8932479 C4.38666667,37.8611111 4.34649573,37.8450427 4.30632479,37.8410256 C4.17777778,37.8329915 4.06529915,37.9294017 4.05726496,38.0579487 C4.05726496,38.0579487 4.05726496,38.0579487 4.05726496,38.0579487 C4.03717949,38.1623932 4.02512821,38.2628205 4.01709402,38.3632479 L4.20188034,38.8332479 C4.23803419,38.8854701 4.29025641,38.8935043 4.35854701,38.8613675 C4.41076923,38.925641 4.46299145,38.9818803 4.52324786,39.0381197 C4.55940171,39.0742735 4.60760684,39.0903419 4.65581197,39.0903419 C4.69598291,39.094359 4.73213675,39.0702564 4.73615385,39.0300855 C4.73615385,39.0220513 4.73615385,39.0180342 4.73615385,39.01 L4.7642735,39.01 C4.80042735,39.0461538 4.8365812,39.0863248 4.87273504,39.1264957 C4.91290598,39.1706838 4.95709402,39.2108547 5.00529915,39.2429915 L5.00529915,39.2188889 C5.06153846,39.2791453 5.14188034,39.3112821 5.22623932,39.3112821 C5.25034188,39.4197436 5.3025641,39.5161538 5.37888889,39.5964957 C5.43111111,39.6567521 5.5034188,39.6969231 5.58376068,39.7009402 C5.62393162,39.6969231 5.66008547,39.6808547 5.68820513,39.6487179 C5.71632479,39.7411111 5.76051282,39.8335043 5.81675214,39.9098291 C5.86094017,39.9339316 5.90512821,39.9580342 5.94529915,39.9861538 C5.98145299,40.0102564 6.01760684,40.034359 6.04974359,40.0664957 L6.10196581,40.0664957 C6.12606838,40.1428205 6.17025641,40.2151282 6.23051282,40.2713675 C6.27871795,40.3195726 6.33094017,40.3637607 6.38717949,40.3999145 L6.38316239,40.3999145 L6.40324786,40.3999145 L6.45547009,40.4601709 L5.61991453,41.2957265 C4.3665812,39.9821368 3.64350427,38.2507692 3.58726496,36.4310256 L3.57923077,36.4350427 Z M9.27547009,34.2497436 C9.25538462,34.2336752 9.23128205,34.2216239 9.20717949,34.2095726 L9.12683761,34.1292308 C9.58076923,33.7315385 10.1511966,33.4945299 10.7537607,33.4503419 L10.7537607,34.2738462 C10.7417094,34.265812 10.7336752,34.2577778 10.7176068,34.2537607 C10.7095726,34.2457265 10.7015385,34.2376923 10.6975214,34.225641 C10.6774359,34.2135897 10.6573504,34.2095726 10.6332479,34.2095726 C10.6252137,34.2095726 10.6131624,34.2095726 10.6051282,34.2095726 C10.5850427,34.2055556 10.5689744,34.2055556 10.5488889,34.2095726 C10.5288034,34.2176068 10.5087179,34.2216239 10.4886325,34.2216239 C10.4765812,34.225641 10.468547,34.225641 10.4564957,34.2216239 C10.4323932,34.2015385 10.4203419,34.1653846 10.4203419,34.1051282 C10.3480342,34.1412821 10.3118803,34.1734188 10.3038462,34.2055556 L10.2636752,34.3903419 C10.2476068,34.4586325 10.1994017,34.5108547 10.1311111,34.5309402 C10.0748718,34.5510256 10.0186325,34.5831624 9.97444444,34.6233333 L9.89410256,34.5711111 L9.76153846,34.5711111 C9.7374359,34.5470085 9.71333333,34.522906 9.68119658,34.5068376 C9.66111111,34.4947863 9.64504274,34.482735 9.62897436,34.4666667 C9.61290598,34.4505983 9.60487179,34.4505983 9.60487179,34.4666667 C9.56871795,34.4626496 9.54059829,34.4867521 9.5365812,34.522906 C9.5365812,34.522906 9.5365812,34.522906 9.5365812,34.522906 L9.46025641,34.4465812 L9.48034188,34.4465812 L9.48034188,34.3863248 C9.42008547,34.3381197 9.35179487,34.2899145 9.27547009,34.2497436 L9.27547009,34.2497436 Z M8.84965812,33.8440171 L8.0542735,33.0486325 C8.7974359,32.3697436 9.75350427,31.9720513 10.7617949,31.9238462 L10.7617949,33.0486325 C10.0547863,33.0968376 9.38794872,33.3780342 8.85769231,33.8520513 L8.84965812,33.8440171 Z M9.30760684,37.6080342 C9.34777778,37.5678632 9.32769231,37.4915385 9.34777778,37.4393162 L9.25940171,37.5196581 C9.32367521,37.4594017 9.37589744,37.3911111 9.41205128,37.3147863 C9.43213675,37.2625641 9.46025641,37.2183761 9.48837607,37.174188 L9.58076923,37.3388889 L8.85367521,38.0659829 C8.56042735,37.7325641 8.34752137,37.3308547 8.24307692,36.8970085 C8.30735043,36.9050427 8.36760684,36.9211111 8.42384615,36.9492308 C8.48008547,36.9934188 8.53632479,37.045641 8.58854701,37.0978632 C8.62470085,37.0978632 8.6608547,37.0898291 8.69299145,37.0697436 L8.7934188,37.1500855 C8.78940171,37.1942735 8.7974359,37.2384615 8.82153846,37.2786325 C8.82153846,37.2987179 8.84965812,37.3188034 8.90188034,37.342906 C8.94606838,37.3629915 8.98222222,37.3951282 9.00632479,37.4312821 L9.05854701,37.4071795 C9.05854701,37.3710256 9.05452991,37.3388889 9.04649573,37.302735 C9.04649573,37.2505128 9.04649573,37.2264103 9.05854701,37.2264103 L9.11076923,37.4111966 L9.16299145,37.6160684 C9.20717949,37.6401709 9.25940171,37.6361538 9.30358974,37.6120513 L9.30760684,37.6080342 Z M10.8501709,38.4235043 C10.8903419,38.4636752 10.9104274,38.495812 10.9104274,38.5118803 C10.9104274,38.5641026 10.8421368,38.5882051 10.7055556,38.5882051 C10.6533333,38.5882051 10.6171795,38.6404274 10.6011111,38.7368376 L10.5488889,38.9818803 L10.5087179,38.9818803 L10.5087179,38.9939316 C9.99854701,38.9095726 9.52051282,38.6886325 9.1308547,38.3511966 L9.83384615,37.6482051 C10.1029915,37.9052991 10.4524786,38.0619658 10.8220513,38.0941026 C10.8180342,38.1342735 10.8260684,38.1704274 10.8461538,38.2025641 C10.8140171,38.2347009 10.7939316,38.282906 10.7939316,38.3311111 C10.7899145,38.3511966 10.81,38.3833333 10.8501709,38.4235043 L10.8501709,38.4235043 Z M7.39145299,38.4717094 C7.3834188,38.3230769 7.36333333,38.1744444 7.33923077,38.0298291 C7.3191453,37.9494872 7.29102564,37.8731624 7.25888889,37.7968376 C7.2508547,37.6763248 7.22273504,37.5598291 7.17854701,37.4473504 C7.11025641,37.3268376 7.02991453,37.2183761 6.93350427,37.1219658 L6.93350427,36.9733333 C6.92145299,36.9211111 6.90538462,36.8688889 6.88128205,36.8247009 L6.88128205,36.7965812 C6.87726496,36.7684615 6.89333333,36.7403419 6.92145299,36.7282906 L7.19461538,36.6358974 C7.1865812,36.5555556 7.19863248,36.4752137 7.22273504,36.3988889 L7.41153846,36.4310256 C7.46376068,36.4310256 7.49188034,36.3948718 7.49188034,36.3225641 C7.47982906,36.2663248 7.46376068,36.2141026 7.43965812,36.1618803 C7.41153846,36.1016239 7.39145299,36.0413675 7.3874359,35.9730769 C7.3874359,35.9369231 7.41555556,35.9047863 7.46376068,35.8806838 C7.51196581,35.8565812 7.56418803,35.8405128 7.61641026,35.8405128 C7.68871795,35.8364957 7.75700855,35.8686325 7.79717949,35.9288889 C7.83333333,35.9891453 7.84940171,36.061453 7.84940171,36.1337607 C7.84940171,36.1819658 7.84538462,36.2261538 7.83735043,36.274359 C7.82931624,36.3105128 7.82529915,36.3506838 7.82128205,36.3868376 L7.87350427,36.4149573 C7.83735043,36.5876923 7.76905983,36.6720513 7.66863248,36.6720513 C7.62042735,36.6680342 7.58025641,36.6399145 7.56017094,36.5957265 C7.54410256,36.5595726 7.51196581,36.5354701 7.47179487,36.531453 C7.4557265,36.531453 7.44769231,36.531453 7.44769231,36.5595726 C7.44769231,36.5957265 7.4557265,36.6318803 7.47179487,36.6640171 C7.49188034,36.704188 7.49991453,36.7483761 7.49991453,36.7925641 C7.49991453,36.9130769 7.44367521,36.957265 7.33521368,36.9211111 C7.29905983,36.9853846 7.33521368,37.0175214 7.43965812,37.0175214 C7.47581197,37.1219658 7.51196581,37.1661538 7.54811966,37.1500855 C7.57623932,37.0938462 7.59632479,37.0335897 7.60034188,36.9733333 C7.61239316,36.9050427 7.62846154,36.8367521 7.6525641,36.7684615 L7.68068376,36.7965812 L7.7891453,36.7684615 C7.7891453,36.7805128 7.7891453,36.7925641 7.7891453,36.8086325 L7.82128205,36.8086325 C7.9257265,37.3830769 8.18683761,37.9133333 8.57649573,38.3471795 L7.47179487,39.4438462 C7.42358974,39.3996581 7.39948718,39.3353846 7.41153846,39.2711111 C7.43162393,39.1666667 7.54008547,39.0983761 7.55213675,38.9899145 L7.58025641,38.7850427 C7.49991453,38.6926496 7.43564103,38.5882051 7.39145299,38.4757265 L7.39145299,38.4717094 Z M6.76076923,36.8447863 C6.77683761,36.8769231 6.78888889,36.9090598 6.78888889,36.9452137 C6.78888889,36.9974359 6.77282051,37.0215385 6.73666667,37.0094872 L6.7165812,37.0094872 C6.68042735,36.8166667 6.65632479,36.6198291 6.6482906,36.4229915 L6.87324786,36.4229915 C6.87324786,36.4591453 6.86521368,36.4952991 6.8491453,36.5274359 C6.82905983,36.5635897 6.80897436,36.5997436 6.78487179,36.6318803 C6.76076923,36.66 6.74470085,36.6961538 6.74470085,36.7323077 C6.74470085,36.7724786 6.75273504,36.8126496 6.77282051,36.8488034 L6.76076923,36.8447863 Z M6.6482906,36.0293162 C6.70051282,35.0250427 7.10222222,34.0729915 7.78512821,33.3338462 L8.58854701,34.1292308 L8.56846154,34.1573504 C8.52025641,34.1694017 8.47606838,34.1854701 8.43188034,34.2055556 L8.31940171,34.3582051 C8.23102564,34.3903419 8.15068376,34.4345299 8.07435897,34.4867521 C7.99803419,34.5470085 7.93376068,34.6152991 7.86948718,34.6916239 L7.66461538,34.7840171 C7.62846154,34.7960684 7.59632479,34.8201709 7.57222222,34.8482906 C7.60837607,34.9366667 7.60837607,34.9808547 7.57222222,34.9888889 L7.31111111,35.0531624 C7.29102564,35.0571795 7.27495726,35.0652137 7.25888889,35.0812821 L7.1825641,35.1576068 C7.16649573,35.1857265 7.15846154,35.2178632 7.15444444,35.25 C7.15444444,35.2821368 7.14239316,35.3142735 7.12632479,35.3383761 C7.07410256,35.3745299 7.03393162,35.4187179 6.99777778,35.4669231 C6.96564103,35.5432479 6.96564103,35.6276068 6.99777778,35.6999145 L7.02991453,35.9570085 L7.01786325,35.9570085 C7.02991453,35.9811111 7.03393162,36.0092308 7.04196581,36.0373504 L6.6482906,36.0293162 Z M8.85769231,38.624359 C9.25136752,38.9738462 9.72538462,39.2148718 10.2395726,39.3353846 L10.127094,39.3755556 C10.0467521,39.395641 9.98247863,39.4599145 9.97042735,39.5442735 C9.95435897,39.6447009 9.91418803,39.7170085 9.85393162,39.7491453 C9.79367521,39.7812821 9.77358974,39.8134188 9.78965812,39.865641 C9.87401709,39.9540171 9.9382906,40.0624786 9.97042735,40.1789744 C10.0025641,40.2994872 10.1070085,40.3918803 10.2315385,40.4119658 L10.384188,40.464188 C10.4404274,40.4682051 10.4926496,40.4882906 10.5368376,40.5204274 C10.5810256,40.5204274 10.6252137,40.5324786 10.6694017,40.5405128 C9.69726496,40.4722222 8.77735043,40.0745299 8.0582906,39.4117094 L8.85769231,38.624359 Z M7.78512821,32.7794872 L6.99777778,31.9921368 C8.02213675,31.0280342 9.36384615,30.4736752 10.7698291,30.4254701 L10.7698291,31.5382051 C9.65709402,31.5864103 8.60059829,32.0242735 7.78512821,32.7794872 Z M7.50794872,33.0566667 C6.75273504,33.8721368 6.31487179,34.9326496 6.27068376,36.0413675 L5.15794872,36.0413675 C5.20615385,34.6353846 5.76051282,33.2936752 6.72461538,32.2693162 L7.50794872,33.0566667 Z M6.26666667,36.4350427 C6.27470085,36.6278632 6.29478632,36.8206838 6.32692308,37.0094872 C6.3108547,36.9853846 6.29880342,36.957265 6.28273504,36.9331624 C6.22247863,36.8528205 6.17025641,36.8086325 6.13008547,36.8086325 C6.08589744,36.8046154 6.0417094,36.832735 6.02564103,36.872906 C6.00957265,36.917094 5.98145299,36.957265 5.94529915,36.9894017 C5.86094017,37.0536752 5.76452991,37.0978632 5.66008547,37.1179487 C5.57974359,37.2063248 5.52752137,37.3147863 5.5034188,37.427265 C5.48333333,37.4594017 5.49136752,37.5035897 5.51547009,37.5317094 C5.54358974,37.5678632 5.52752137,37.6 5.47529915,37.6321368 C5.51145299,37.7004274 5.51547009,37.7446154 5.5034188,37.7606838 C5.51948718,37.7968376 5.51547009,37.8088889 5.48735043,37.8008547 C5.46324786,37.7928205 5.4391453,37.7968376 5.42307692,37.812906 C5.40700855,37.8289744 5.39495726,37.8490598 5.38692308,37.8731624 C5.24632479,37.4031624 5.17,36.9211111 5.15393162,36.4310256 L6.26666667,36.4310256 L6.26666667,36.4350427 Z M10.765812,43.625641 C8.94205128,43.5774359 7.20264957,42.8503419 5.88102564,41.5889744 L6.7165812,40.7494017 C7.81726496,41.785812 9.25538462,42.384359 10.765812,42.428547 L10.765812,43.625641 L10.765812,43.625641 Z M10.765812,42.0469231 C9.36786325,41.9987179 8.03418803,41.4483761 7.00982906,40.4963248 C7.07410256,40.5284615 7.14239316,40.548547 7.21470085,40.5525641 C7.28700855,40.548547 7.35529915,40.5284615 7.41957265,40.4963248 C7.49991453,40.464188 7.57623932,40.4280342 7.6525641,40.3878632 C7.73290598,40.3918803 7.81324786,40.375812 7.88555556,40.335641 C7.95384615,40.3517094 8.02213675,40.3517094 8.09042735,40.335641 C8.15068376,40.3195726 8.18683761,40.2673504 8.18282051,40.207094 C8.17880342,40.1468376 8.14264957,40.0946154 8.09042735,40.0664957 C8.03017094,40.0263248 7.99803419,39.9861538 7.99803419,39.95 C7.99803419,39.9138462 7.98196581,39.9098291 7.94581197,39.8857265 C7.88555556,39.8294872 7.82931624,39.7652137 7.77709402,39.6969231 C8.5925641,40.4481197 9.65307692,40.89 10.7617949,40.934188 L10.765812,42.0469231 Z M10.9706838,39.1586325 C10.8823077,39.1666667 10.7939316,39.1505983 10.7135897,39.1184615 C10.7135897,39.0983761 10.6935043,39.0742735 10.6854701,39.0501709 C10.725641,39.0220513 10.765812,38.9939316 10.8059829,38.9698291 C10.854188,38.9336752 10.9064103,38.9095726 10.9666667,38.9015385 L10.9666667,38.8292308 L11.1594872,38.6886325 C11.1795726,38.6765812 11.2036752,38.668547 11.2277778,38.6645299 C11.2759829,38.6524786 11.3282051,38.6323932 11.3723932,38.6123077 C11.4447009,38.6364103 11.5129915,38.6645299 11.577265,38.7047009 C11.6415385,38.7448718 11.7098291,38.7729915 11.7821368,38.7930769 L11.8102564,38.6926496 C11.8464103,38.6926496 11.8946154,38.7288034 11.962906,38.7930769 C12.0111111,38.7890598 12.0552991,38.7729915 12.091453,38.7408547 C12.1075214,38.7006838 12.1075214,38.6524786 12.091453,38.6123077 C12.1195726,38.6163248 12.1436752,38.624359 12.1677778,38.6404274 C12.1838462,38.6404274 12.1958974,38.6444444 12.2079487,38.6564957 C12.22,38.6645299 12.2320513,38.668547 12.2481197,38.668547 L12.2762393,38.668547 C12.3284615,38.6605128 12.3766667,38.6364103 12.4168376,38.6042735 C12.4610256,38.5721368 12.5092308,38.54 12.5574359,38.5118803 C12.5694872,38.4998291 12.5895726,38.495812 12.6016239,38.5078632 C12.6016239,38.5078632 12.605641,38.5118803 12.605641,38.5118803 C12.6257265,38.54 12.6377778,38.5801709 12.6337607,38.6163248 C12.6337607,38.7569231 12.5453846,38.881453 12.4128205,38.925641 C12.2923077,38.9858974 12.1637607,39.0381197 12.0352137,39.0782906 C12.007094,39.1144444 11.9870085,39.1546154 11.9709402,39.1947863 C11.9468376,39.2550427 11.9147009,39.2831624 11.8825641,39.2831624 C11.7741026,39.2791453 11.6696581,39.2630769 11.5611966,39.2389744 C11.5250427,39.1907692 11.5009402,39.138547 11.4808547,39.0823077 C11.4165812,39.0823077 11.3563248,39.094359 11.2920513,39.1104274 L11.0791453,39.1626496 C11.0429915,39.1706838 11.0068376,39.1706838 10.9706838,39.1626496 L10.9706838,39.1586325 Z M12.091453,38.3029915 C12.0994872,38.2266667 12.1517094,38.1623932 12.22,38.1342735 C12.2842735,38.1101709 12.3525641,38.0941026 12.4248718,38.0941026 C12.4248718,38.1463248 12.3766667,38.1945299 12.2842735,38.2467521 C12.2320513,38.2788889 12.175812,38.3070085 12.1155556,38.3230769 L12.091453,38.3029915 Z M12.8988889,37.6682906 C12.9711966,37.7084615 13.0113675,37.7888034 13.0033333,37.8731624 C13.0113675,37.9213675 12.9752137,37.9695726 12.9270085,37.9776068 C12.9189744,37.9776068 12.9109402,37.9776068 12.8988889,37.9776068 C12.8466667,37.9776068 12.8024786,37.9173504 12.7703419,37.7928205 C12.6498291,37.7566667 12.5815385,37.7004274 12.5654701,37.6241026 C12.5494017,37.5477778 12.5654701,37.5035897 12.5935897,37.4835043 C12.6257265,37.4674359 12.6618803,37.4553846 12.6980342,37.4433333 C12.734188,37.4433333 12.7382051,37.4754701 12.7261538,37.5598291 L12.8988889,37.6682906 Z M15.4015385,33.3177778 C15.4216239,33.3177778 15.4417094,33.3298291 15.4537607,33.3458974 C15.5180342,33.3458974 15.5823077,33.3619658 15.6345299,33.3981197 C15.7550427,33.5146154 15.8594872,33.6431624 15.9478632,33.7877778 C15.9679487,33.7877778 15.9880342,33.8158974 16.0121368,33.8681197 C16.0362393,33.924359 16.0683761,33.9444444 16.1045299,33.9444444 C16.152735,33.9404274 16.1969231,33.924359 16.237094,33.9002564 C16.237094,33.8761538 16.237094,33.8520513 16.2531624,33.8279487 C16.5705128,34.522906 16.747265,35.2781197 16.7753846,36.0413675 L15.6747009,36.0413675 C15.6747009,36.0333333 15.6747009,36.0293162 15.6747009,36.0212821 C15.682735,35.9208547 15.6586325,35.8204274 15.6144444,35.7320513 C15.5582051,35.6115385 15.5461538,35.4789744 15.5782906,35.3504274 C15.6023932,35.2821368 15.6064103,35.205812 15.594359,35.1335043 C15.5622222,35.1335043 15.5300855,35.1455556 15.5019658,35.1696581 C15.4738462,35.205812 15.4497436,35.2419658 15.4336752,35.2861538 L15.3734188,35.4267521 L15.3734188,35.4428205 C15.3653846,35.4588889 15.3573504,35.4749573 15.3533333,35.4910256 C15.3493162,35.5151282 15.3412821,35.5352137 15.3252137,35.5552991 L15.2729915,35.7601709 C15.2609402,35.8284615 15.2609402,35.8967521 15.2729915,35.9650427 L15.2729915,35.9650427 L15.2729915,36.0453846 L14.7105983,36.0453846 C14.742735,36.0092308 14.7869231,35.9811111 14.8311111,35.9650427 L14.8110256,35.9650427 L14.9596581,35.8887179 C14.9275214,35.8766667 14.9074359,35.8445299 14.9074359,35.8123932 C14.9074359,35.7601709 14.9074359,35.7320513 14.9355556,35.7240171 C14.9636752,35.7159829 14.9998291,35.6918803 15.084188,35.6637607 C15.1404274,35.5874359 15.1886325,35.507094 15.2207692,35.422735 C15.3171795,35.2660684 15.3854701,35.0893162 15.425641,34.908547 C15.425641,34.8683761 15.3734188,34.8161538 15.3653846,34.7759829 C15.3653846,34.7398291 15.3694017,34.6996581 15.3774359,34.6635043 C15.3774359,34.4787179 15.4577778,34.1653846 15.2288034,34.1091453 C15.2087179,34.1091453 15.2006838,34.0810256 15.2006838,34.0328205 C15.2609402,33.9846154 15.2810256,33.9002564 15.252906,33.8279487 L15.0922222,33.8279487 C15.1002564,33.795812 15.1123077,33.7636752 15.1323932,33.7355556 C15.1564957,33.6994017 15.168547,33.6592308 15.1725641,33.6190598 C15.1765812,33.582906 15.1524786,33.5467521 15.1123077,33.542735 C15.1042735,33.542735 15.1002564,33.542735 15.0922222,33.542735 C15.0480342,33.542735 14.9998291,33.5507692 14.9596581,33.5708547 C14.9355556,33.5869231 14.9074359,33.5949573 14.8793162,33.5989744 C14.867265,33.6029915 14.8511966,33.6029915 14.8391453,33.5989744 L14.8029915,33.5467521 C14.7949573,33.4503419 14.7547863,33.3579487 14.6864957,33.285641 C14.6302564,33.2213675 14.5619658,33.1691453 14.4816239,33.1410256 C14.4936752,33.1048718 14.4936752,33.0687179 14.4816239,33.0325641 L14.6864957,32.7955556 L15.0038462,32.9080342 C14.995812,32.9803419 15.0279487,33.0486325 15.084188,33.0888034 C15.1203419,33.1169231 15.1564957,33.1410256 15.1926496,33.1651282 C15.2368376,33.1932479 15.2770085,33.2253846 15.3171795,33.2575214 L15.3171795,33.2735897 C15.3613675,33.3017094 15.3854701,33.3177778 15.4015385,33.3177778 L15.4015385,33.3177778 Z M14.3329915,40.8658974 C14.3169231,40.8498291 14.2928205,40.8377778 14.2687179,40.8377778 C14.2405983,40.8377778 14.228547,40.8217094 14.228547,40.7855556 C14.228547,40.7494017 14.2566667,40.717265 14.3088889,40.6851282 C14.3691453,40.6369231 14.4133333,40.5766667 14.4374359,40.504359 C14.4655556,40.4521368 14.4816239,40.3958974 14.485641,40.335641 C14.4896581,40.3075214 14.4735897,40.2794017 14.4454701,40.2713675 C14.4093162,40.2552991 14.3811966,40.2352137 14.3530769,40.207094 C14.3169231,40.1870085 14.2767521,40.1709402 14.2365812,40.1548718 C14.1883761,40.1347863 14.1401709,40.1066667 14.0959829,40.0745299 C14.0477778,40.0504274 14.015641,39.9982051 14.015641,39.9459829 C14.0236752,39.9017949 14.0357265,39.8576068 14.055812,39.8174359 C14.055812,39.7973504 14.0758974,39.7692308 14.0839316,39.7491453 L14.144188,39.6969231 L14.742735,40.2954701 C14.742735,40.3637607 14.782906,40.4039316 14.8632479,40.4159829 L14.9275214,40.4802564 C14.7186325,40.677094 14.4936752,40.8538462 14.2566667,41.018547 C14.2687179,40.9944444 14.2807692,40.9703419 14.3008547,40.9502564 C14.3088889,40.9422222 14.3209402,40.934188 14.3329915,40.9301709 C14.3410256,40.9141026 14.3410256,40.89 14.3329915,40.8658974 L14.3329915,40.8658974 Z M13.971453,38.0137607 C13.9192308,37.9976923 13.8589744,38.0057265 13.8107692,38.0418803 C13.7344444,38.0619658 13.6782051,38.1222222 13.6541026,38.1945299 C13.6541026,38.2105983 13.6420513,38.2186325 13.6259829,38.2186325 C13.5898291,38.2186325 13.5536752,38.2306838 13.5215385,38.2467521 C13.4773504,38.2628205 13.4331624,38.2788889 13.3929915,38.2989744 C13.3407692,38.2989744 13.3166667,38.2788889 13.3166667,38.2467521 C13.3166667,38.2146154 13.3929915,38.1623932 13.5496581,38.1463248 C13.6179487,38.0619658 13.6621368,38.0097436 13.6782051,37.9936752 C13.714359,37.9695726 13.7545299,37.9494872 13.7987179,37.941453 C13.8830769,37.897265 13.9513675,37.8329915 14.0035897,37.7526496 C14.0437607,37.7044444 14.0758974,37.6482051 14.1,37.5879487 L14.1241026,37.5879487 C14.1241026,37.6682906 14.1602564,37.7124786 14.2325641,37.7124786 C14.3048718,37.7124786 14.3329915,37.6522222 14.3691453,37.5317094 C14.4374359,37.5598291 14.5137607,37.5758974 14.5860684,37.5839316 C14.6623932,37.5879487 14.7347009,37.5517949 14.7748718,37.4835043 L15.0922222,37.4835043 C15.0922222,37.4915385 15.0922222,37.4995726 15.0922222,37.5076068 L15.0922222,37.5276923 C14.911453,38.0981197 14.6182051,38.6283761 14.2245299,39.0782906 L14.2245299,38.9979487 C14.2245299,38.9979487 14.1482051,38.7609402 14.1321368,38.7609402 C14.1160684,38.7609402 14.055812,38.8211966 14.0116239,38.9457265 L13.9152137,39.1787179 L13.6541026,39.2309402 C13.5777778,39.2470085 13.501453,39.2590598 13.4211111,39.2590598 C13.3447863,39.2429915 13.2684615,39.2108547 13.2001709,39.1666667 C13.1318803,39.1224786 13.0555556,39.094359 12.9792308,39.0782906 C12.9069231,39.054188 12.8346154,39.0381197 12.7582906,39.0260684 C12.6618803,39.01 12.6176923,38.9858974 12.6176923,38.9497436 C12.6176923,38.9135897 12.6538462,38.8734188 12.7181197,38.8734188 C12.7864103,38.881453 12.8547009,38.8935043 12.9229915,38.9135897 L13.2323077,38.9899145 L13.5175214,39.0662393 C13.5657265,39.0823077 13.6179487,39.0983761 13.6701709,39.1064103 L13.8268376,39.054188 C13.8308547,39.0019658 13.8509402,38.9537607 13.8790598,38.9135897 C13.9071795,38.8734188 13.927265,38.8211966 13.9312821,38.7729915 C13.9754701,38.6805983 14.0076068,38.5882051 14.0276923,38.4877778 C14.0517949,38.3873504 14.0678632,38.282906 14.0718803,38.1784615 C14.0517949,38.0740171 14.0236752,38.0177778 13.971453,38.0137607 L13.971453,38.0137607 Z M14.6623932,36.4430769 L15.2729915,36.4430769 C15.2609402,36.6961538 15.2288034,36.9492308 15.1725641,37.1982906 C15.1404274,37.1139316 15.0962393,37.0376068 15.04,36.9652991 L14.8351282,36.7604274 L14.7949573,36.575641 C14.7869231,36.5555556 14.7748718,36.531453 14.7588034,36.5153846 C14.7226496,36.4912821 14.6905128,36.4591453 14.6623932,36.4270085 L14.6623932,36.4430769 Z M14.9154701,39.6005128 C14.8632479,39.6005128 14.8391453,39.6165812 14.8391453,39.6406838 C14.8351282,39.692906 14.827094,39.7491453 14.8150427,39.8013675 L14.4294017,39.4157265 C14.955641,38.8452991 15.3332479,38.154359 15.5260684,37.4031624 L15.5461538,37.387094 C15.6345299,37.4192308 15.6907692,37.4192308 15.7188889,37.387094 C15.7389744,37.3670085 15.7510256,37.3388889 15.7590598,37.3107692 C15.7429915,37.2304274 15.6947863,37.1581197 15.6305128,37.1058974 L15.5983761,37.1058974 C15.638547,36.8849573 15.6666667,36.66 15.6747009,36.4310256 L16.7874359,36.4310256 C16.7392308,37.8370085 16.1848718,39.1747009 15.2207692,40.2030769 L15.1725641,40.1548718 L15.1725641,40.1428205 L15.1163248,39.7933333 C15.0882051,39.6808547 15.0199145,39.6005128 14.9154701,39.6005128 L14.9154701,39.6005128 Z M14.6382906,33.9846154 L14.6382906,33.9846154 C14.6382906,34.0288034 14.6262393,34.0729915 14.6101709,34.1131624 C14.5941026,34.1573504 14.5780342,34.2015385 14.5579487,34.2417094 C14.614188,34.3140171 14.6824786,34.3742735 14.7628205,34.4224786 C14.8431624,34.4787179 14.9235043,34.5389744 14.995812,34.6032479 C15.0480342,34.695641 15.084188,34.8000855 15.1123077,34.9005128 C15.1444444,34.9888889 15.1645299,35.0812821 15.1765812,35.1736752 C15.1605128,35.2379487 15.1364103,35.3022222 15.1002564,35.3584615 C15.0480342,35.4508547 14.9476068,35.5111111 14.8431624,35.5151282 L14.8150427,35.4870085 C14.8190598,35.4347863 14.8391453,35.3825641 14.867265,35.334359 C14.8953846,35.2861538 14.911453,35.2339316 14.9194872,35.1817094 C14.9757265,35.1495726 15.0158974,35.0933333 15.0239316,35.0290598 L14.9435897,34.9888889 C14.8953846,34.952735 14.8552137,34.9165812 14.8150427,34.8723932 C14.8150427,34.8201709 14.7628205,34.7960684 14.6623932,34.7960684 C14.614188,34.7920513 14.57,34.8081197 14.5338462,34.8362393 C14.4936752,34.8683761 14.4494872,34.8964957 14.4052991,34.9246154 L14.3530769,34.824188 C14.3691453,34.7920513 14.3771795,34.7518803 14.3811966,34.7157265 L14.1763248,34.3702564 C14.0879487,34.3220513 13.9915385,34.2939316 13.8911111,34.2818803 C13.8228205,34.265812 13.7545299,34.265812 13.6862393,34.2818803 C13.6179487,34.2939316 13.5496581,34.2899145 13.4813675,34.2698291 C13.4010256,34.2617949 13.3247009,34.2899145 13.2644444,34.3461538 C13.2001709,34.394359 13.1439316,34.4505983 13.0917094,34.5148718 C13.0635897,34.5470085 13.0917094,34.5871795 13.0234188,34.5711111 C12.9993162,34.5510256 12.9752137,34.5269231 12.9591453,34.5028205 L14.144188,33.3298291 C14.1522222,33.3418803 14.1602564,33.3579487 14.1723077,33.37 L14.272735,33.4864957 L14.3811966,33.6230769 C14.4776068,33.7435897 14.5579487,33.8641026 14.6382906,33.9846154 L14.6382906,33.9846154 Z M11.8142735,41.7576923 C11.9106838,41.8380342 12.0231624,41.8942735 12.1476923,41.9304274 C11.8223077,41.9987179 11.4969231,42.0388889 11.1635043,42.0469231 L11.1635043,40.934188 C11.2076923,41.0024786 11.2639316,41.062735 11.3282051,41.1109402 C11.4005128,41.1350427 11.4768376,41.147094 11.5571795,41.1511111 C11.6736752,41.1631624 11.7339316,41.1832479 11.7339316,41.2153846 C11.7299145,41.2555556 11.7178632,41.2957265 11.6937607,41.3318803 C11.6696581,41.3680342 11.6576068,41.4082051 11.6535897,41.4483761 C11.6535897,41.572906 11.7138462,41.6853846 11.8142735,41.7576923 Z M11.1635043,43.625641 L11.1635043,42.4405983 C11.5973504,42.428547 12.0311966,42.3682906 12.4529915,42.2638462 C12.4529915,42.2718803 12.4529915,42.2799145 12.4529915,42.2879487 C12.4529915,42.3 12.4529915,42.3080342 12.4529915,42.3200855 C12.5534188,42.384359 12.6417949,42.4687179 12.7100855,42.5651282 C12.7462393,42.6334188 12.8386325,42.6655556 12.9952991,42.6655556 C13.0836752,42.6655556 13.1358974,42.6494872 13.1640171,42.6133333 C13.1921368,42.5771795 13.2202564,42.5410256 13.2564103,42.5088889 C13.2925641,42.472735 13.3367521,42.4446154 13.3849573,42.428547 C13.4291453,42.4205128 13.4652991,42.3923932 13.4894017,42.3522222 C13.5657265,42.3241026 13.6340171,42.2718803 13.674188,42.1995726 C13.7424786,42.1473504 13.7987179,42.0750427 13.8268376,41.9947009 C13.8710256,41.9906838 13.9071795,41.9665812 13.9312821,41.9304274 C13.9835043,41.8460684 14.015641,41.7536752 14.0357265,41.657265 L14.0799145,41.6291453 C14.0799145,41.617094 14.0799145,41.6050427 14.0799145,41.5889744 C14.4816239,41.3519658 14.8552137,41.0707692 15.1966667,40.7534188 L16.0322222,41.5929915 C14.7105983,42.8503419 12.9792308,43.5734188 11.1635043,43.625641 L11.1635043,43.625641 Z M16.3294872,41.3198291 L15.4899145,40.4842735 C16.5263248,39.3835897 17.1248718,37.9454701 17.1690598,36.4350427 L18.3500855,36.4350427 C18.3058974,38.2588034 17.5828205,39.9982051 16.3294872,41.3198291 L16.3294872,41.3198291 Z M18.3541026,36.0413675 L17.1730769,36.0413675 C17.132906,34.7920513 16.7151282,33.5869231 15.9759829,32.5826496 C15.9639316,32.5424786 15.9438462,32.5063248 15.9157265,32.474188 C15.895641,32.4500855 15.8715385,32.4340171 15.8474359,32.4139316 L15.5461538,32.0564103 C15.5300855,32.0282906 15.5220513,32.0001709 15.5140171,31.9720513 L16.3294872,31.1565812 C17.5828205,32.4822222 18.3018803,34.2216239 18.3541026,36.0413675 Z M11.1635043,28.8588034 C12.987265,28.9070085 14.7266667,29.6341026 16.0482906,30.8954701 L15.3292308,31.6145299 C15.3131624,31.5783761 15.297094,31.5422222 15.2890598,31.5060684 C15.2328205,31.4538462 15.1966667,31.4257265 15.1805983,31.4257265 C15.1163248,31.3976068 15.0681197,31.3333333 15.0641026,31.2610256 C15.0600855,31.2007692 15.04,31.1405128 14.9998291,31.0923077 C14.8873504,31.0521368 14.7949573,30.9717949 14.7387179,30.8633333 C14.6704274,30.7468376 14.6021368,30.6825641 14.5338462,30.6825641 C14.4776068,30.6986325 14.4173504,30.6946154 14.3651282,30.6624786 C14.312906,30.6383761 14.2566667,30.6223077 14.1964103,30.6142735 C14.1361538,30.6142735 14.0718803,30.6223077 14.0116239,30.6423932 C13.9433333,30.6624786 13.8750427,30.678547 13.8067521,30.6946154 L13.7786325,30.722735 C12.9952991,30.3170085 12.1316239,30.0840171 11.2478632,30.0398291 C11.3161538,29.9313675 11.324188,29.8590598 11.2719658,29.8349573 C11.2558974,29.8188889 11.2197436,29.8349573 11.1594872,29.8952137 L11.1594872,28.8588034 L11.1635043,28.8588034 Z M11.1635043,30.4335043 C12.0030769,30.4616239 12.8225641,30.6705128 13.5737607,31.0441026 C13.5737607,31.0521368 13.5737607,31.0561538 13.5737607,31.064188 L13.674188,31.1766667 L13.7625641,31.277094 C13.7826496,31.3534188 13.8067521,31.4297436 13.8348718,31.5020513 C13.8589744,31.5462393 13.8830769,31.5904274 13.9152137,31.6305983 C13.8991453,31.7069231 13.9111966,31.7832479 13.9553846,31.8475214 C13.9955556,31.9238462 14.0437607,31.9961538 14.0959829,32.0644444 L14.1964103,32.0523932 C14.2365812,32.044359 14.2807692,32.0403419 14.3249573,32.0363248 C14.3731624,32.044359 14.4173504,32.0724786 14.441453,32.1126496 C14.4816239,32.1568376 14.5097436,32.2130769 14.5298291,32.2693162 C14.5418803,32.2974359 14.5499145,32.3255556 14.5539316,32.3536752 L14.2365812,32.6710256 C14.2044444,32.5223932 14.1522222,32.3777778 14.0839316,32.2411966 C14.0317094,32.1889744 13.9553846,32.1648718 13.8790598,32.172906 C13.8589744,32.1568376 13.802735,32.0805128 13.6942735,31.9479487 C13.5898291,31.8153846 13.5295726,31.7430769 13.5094872,31.7430769 C13.4813675,31.7390598 13.4532479,31.7511111 13.4331624,31.7711966 C13.4492308,31.8033333 13.4652991,31.831453 13.4853846,31.8635897 L13.585812,32.0363248 C13.5898291,32.0604274 13.5697436,32.0845299 13.545641,32.088547 C13.5416239,32.088547 13.5376068,32.088547 13.5335897,32.088547 C13.5496581,32.1528205 13.5978632,32.2050427 13.6621368,32.217094 L13.6340171,32.2693162 L13.7103419,32.4219658 C12.9631624,31.875641 12.0673504,31.5623077 11.1434188,31.5221368 L11.1635043,30.4335043 Z M11.1635043,31.9399145 C12.1717949,31.9800855 13.1318803,32.3777778 13.8750427,33.0566667 L13.0796581,33.8520513 C12.5494017,33.3820513 11.878547,33.1008547 11.1675214,33.0566667 L11.1635043,31.9399145 Z M11.1635043,33.4583761 C11.7258974,33.498547 12.264188,33.711453 12.7060684,34.0689744 C12.6859829,34.0770085 12.6699145,34.0850427 12.6538462,34.1011111 C12.6377778,34.1171795 12.6217094,34.1292308 12.6016239,34.137265 C12.5855556,34.1452991 12.5775214,34.1653846 12.5775214,34.1975214 C12.5775214,34.2376923 12.6337607,34.2577778 12.6739316,34.2617949 L12.3726496,34.5550427 C12.3284615,34.5751282 12.2923077,34.6032479 12.2561538,34.6353846 C12.1838462,34.6715385 12.1476923,34.6996581 12.135641,34.7277778 C12.1235897,34.7558974 12.1195726,34.7759829 12.1115385,34.8161538 L12.0111111,34.9165812 C11.9950427,34.9205983 11.9829915,34.9205983 11.9669231,34.9165812 C11.9307692,34.9165812 11.878547,34.8804274 11.8062393,34.8121368 C11.7339316,34.7398291 11.6857265,34.7117094 11.6455556,34.7117094 C11.6013675,34.7076923 11.5611966,34.7237607 11.5290598,34.7518803 C11.5049573,34.7759829 11.4647863,34.78 11.4366667,34.7639316 C11.4005128,34.7277778 11.4366667,34.6916239 11.5531624,34.6474359 L11.7781197,34.5550427 C11.9106838,34.4586325 11.9870085,34.3019658 11.9829915,34.137265 C11.9829915,34.0488889 11.9468376,34.0047009 11.878547,34.0047009 L11.7982051,34.0810256 C11.7299145,34.1131624 11.665641,34.1533333 11.6134188,34.2055556 L11.4808547,34.3300855 C11.4326496,34.31 11.3764103,34.3019658 11.3201709,34.3019658 L11.1675214,34.3019658 L11.1675214,34.3019658 L11.1635043,33.4583761 Z M10.9345299,35.2419658 C10.9465812,35.2700855 10.9626496,35.2821368 10.982735,35.2821368 C11.0269231,35.2821368 11.0711111,35.294188 11.107265,35.3223077 C11.1474359,35.3464103 11.195641,35.3544444 11.2398291,35.3383761 C11.2438462,35.3584615 11.2558974,35.3745299 11.2719658,35.3865812 C11.2880342,35.4267521 11.3282051,35.4468376 11.3723932,35.4428205 L11.4045299,35.4749573 C11.4125641,35.4829915 11.4165812,35.4950427 11.4205983,35.5030769 C11.4326496,35.5352137 11.4487179,35.5633333 11.4647863,35.5954701 L11.4768376,35.5954701 L11.4768376,35.6155556 C11.5009402,35.6316239 11.5330769,35.635641 11.5611966,35.6276068 C11.5812821,35.6195726 11.6053846,35.6195726 11.6254701,35.6276068 L11.6254701,35.6838462 L11.6415385,35.6838462 C11.6415385,35.7039316 11.6415385,35.7240171 11.6415385,35.7481197 C11.6495726,35.7882906 11.6535897,35.8244444 11.6535897,35.8646154 L11.6535897,35.9168376 C11.6535897,35.9288889 11.6455556,35.9409402 11.6294872,35.9449573 C11.6294872,35.9449573 11.6254701,35.9449573 11.6254701,35.9449573 C11.577265,35.9811111 11.5491453,36.0373504 11.5411111,36.0976068 C11.5411111,36.1337607 11.5611966,36.145812 11.6094017,36.1377778 C11.6455556,36.1257265 11.6897436,36.1417949 11.705812,36.1779487 C11.7459829,36.2181197 11.7660684,36.274359 11.7620513,36.3305983 L11.7620513,36.5635897 C11.7580342,36.5957265 11.7741026,36.6238462 11.8022222,36.6399145 C11.8303419,36.6559829 11.8423932,36.6720513 11.8423932,36.6921368 C11.8423932,36.7564103 11.8303419,36.8206838 11.8142735,36.8849573 C11.8062393,36.9452137 11.7781197,37.0054701 11.7379487,37.0536752 C11.7178632,37.0697436 11.6736752,37.0697436 11.6053846,37.0536752 C11.5451282,37.0376068 11.4808547,37.0295726 11.4165812,37.0255556 C11.3804274,37.0255556 11.3442735,37.0777778 11.3121368,37.1782051 C11.28,37.2545299 11.2518803,37.3308547 11.2317949,37.4111966 C11.2157265,37.4794872 11.1795726,37.5116239 11.1273504,37.5116239 C11.0911966,37.5116239 11.0550427,37.515641 11.022906,37.5236752 L11.0389744,37.5236752 L10.9505983,37.6642735 L10.9224786,37.7004274 C10.6292308,37.684359 10.3520513,37.5598291 10.1351282,37.3589744 L10.2717094,37.2223932 C10.3560684,37.2103419 10.4404274,37.1902564 10.5207692,37.1621368 L10.5649573,37.1420513 C10.7015385,37.0817949 10.6894872,36.9693162 10.7698291,36.8488034 C10.8140171,36.7684615 10.9465812,36.6800855 10.8421368,36.5917094 C10.9586325,36.3868376 10.4203419,36.3868376 10.3239316,36.4270085 C10.2275214,36.4671795 10.2837607,36.5997436 10.2235043,36.6921368 C10.1913675,36.7403419 10.1431624,36.7403419 10.1029915,36.7724786 C10.0146154,36.8447863 9.94230769,36.9371795 9.89811966,37.0416239 C9.86196581,36.9773504 9.83384615,36.9090598 9.80974359,36.8367521 L9.82982906,36.8367521 C9.81777778,36.8166667 9.81376068,36.8005983 9.82982906,36.7965812 L9.85794872,36.7965812 L9.85794872,36.8247009 C9.92623932,36.8407692 9.97042735,36.8407692 9.98649573,36.8247009 C10.0025641,36.7764957 10.0146154,36.7282906 10.0266667,36.6800855 C10.0628205,36.575641 10.1110256,36.4711966 10.167265,36.3788034 C10.1351282,36.362735 10.1150427,36.3346154 10.1070085,36.2984615 C10.1070085,36.2623077 10.0788889,36.2582906 10.0467521,36.2703419 C10.0146154,36.2864103 9.99854701,36.3145299 9.99854701,36.3506838 C9.99452991,36.3908547 9.97846154,36.4270085 9.95034188,36.4551282 C9.92623932,36.487265 9.89008547,36.5033333 9.84991453,36.5073504 C9.85393162,36.4711966 9.82982906,36.4350427 9.78965812,36.4310256 C9.78564103,36.4310256 9.77760684,36.4310256 9.77358974,36.4310256 C9.7334188,36.4350427 9.69726496,36.4511111 9.6691453,36.4832479 C9.63299145,36.4832479 9.55264957,36.4832479 9.42410256,36.5073504 C9.34376068,36.5274359 9.25940171,36.5274359 9.17905983,36.5073504 C9.14290598,36.4752137 9.17905983,36.4390598 9.30760684,36.4069231 C9.29555556,36.2984615 9.3357265,36.19 9.41606838,36.1136752 C9.4642735,36.1417949 9.51649573,36.1578632 9.57273504,36.1658974 L9.62495726,36.1136752 L9.65307692,36.1136752 C9.70529915,36.1136752 9.7334188,36.1578632 9.74145299,36.2462393 C9.74948718,36.3346154 9.77358974,36.3747863 9.8057265,36.3747863 C9.84589744,36.3707692 9.88205128,36.3547009 9.91017094,36.3225641 L9.91017094,36.1859829 L9.98649573,35.8967521 L9.98649573,35.8204274 C10.0065812,35.7722222 10.0347009,35.7280342 10.0668376,35.6918803 L10.0989744,35.6918803 C10.1351282,35.6637607 10.1752991,35.6436752 10.2194872,35.635641 C10.2476068,35.5874359 10.2636752,35.5311966 10.2717094,35.4749573 C10.3239316,35.4588889 10.4123077,35.422735 10.5448718,35.3705128 C10.6734188,35.3182906 10.7497436,35.2660684 10.7497436,35.2098291 L10.7497436,35.1937607 C10.8059829,35.1817094 10.8662393,35.1736752 10.9264957,35.1696581 C10.9305128,35.1937607 10.938547,35.2178632 10.9586325,35.2339316 L10.9345299,35.2419658 Z M10.7698291,28.8588034 L10.7698291,30.0317949 C9.25940171,30.08 7.82128205,30.6745299 6.72059829,31.7069231 L5.88504274,30.8713675 C7.20666667,29.6220513 8.94606838,28.9029915 10.7698291,28.8588034 Z M5.60786325,31.1525641 L6.4434188,31.9881197 C5.40700855,33.0888034 4.80846154,34.5309402 4.7642735,36.0413675 L3.57923077,36.0413675 C3.6274359,34.2135897 4.35051282,32.474188 5.60786325,31.1525641 L5.60786325,31.1525641 Z" id="Shape" fill="#2FABE1" fill-rule="nonzero"></path>
                </g>
            </g>
        </g>
    </g>
</svg>